<svg width="36" height="35" viewBox="0 0 36 35" fill="none" xmlns="http://www.w3.org/2000/svg">
<path d="M6.93423 35C5.70649 34.9426 4.55833 34.5061 3.62616 33.7021C1.96644 32.2665 1.28436 29.9119 1.84139 27.5459C2.37568 25.2718 4.43328 21.3208 8.59396 17.0597C10.3105 15.3024 12.2203 13.4303 14.5508 11.6386C14.8009 11.4548 14.9259 11.1332 14.8691 10.8346C14.5167 8.82461 14.0051 7.29704 13.6072 6.63089C12.982 5.56274 12.1521 4.89658 11.22 4.68984C10.3446 4.49459 9.36698 4.7243 8.49164 5.33303C6.63867 6.6194 5.08126 8.70976 4.36507 9.76642C4.11498 10.134 3.63753 10.2258 3.26238 9.99613L0.7728 8.46856C0.363554 8.21588 0.249874 7.68755 0.511337 7.28556C1.3753 5.9877 3.37606 3.27713 5.91112 1.51985C7.8323 0.187536 10.0604 -0.294853 12.1862 0.176051C14.3461 0.658441 16.2446 2.10561 17.5064 4.25339C17.927 4.97698 18.3931 6.13701 18.8024 7.61864C18.9388 8.13548 19.5072 8.37668 19.9846 8.13548C20.9396 7.63012 21.9513 7.15922 23.0199 6.71128C27.1465 4.98846 29.2523 4.23042 30.9802 3.72506C31.4236 3.58724 31.8783 3.8514 32.0033 4.29934L32.7764 7.11328C32.9014 7.54972 32.6513 8.00914 32.2193 8.13548C30.5596 8.62936 28.6243 9.34146 24.7478 10.9494C23.054 11.6615 21.5421 12.4425 20.1665 13.281C19.9051 13.4418 19.7687 13.7289 19.78 14.0275C19.9619 17.8522 19.4504 22.1937 17.5178 26.0988C15.4147 30.3484 12.8001 33.1623 9.74212 34.4487C8.79858 34.8507 7.8323 35.023 6.9115 34.977L6.93423 35ZM14.9714 19.2879C15.1078 18.4839 14.1529 17.967 13.5731 18.5298C12.9934 19.0926 12.4022 19.6899 11.8338 20.2756C8.07103 24.1347 6.54772 27.4081 6.26352 28.6026C6.10437 29.2802 6.21805 29.889 6.58183 30.1991C7.01381 30.5666 7.67315 30.3714 8.03692 30.222C10.0491 29.3721 11.8907 27.3047 13.4822 24.0658C14.2325 22.5497 14.6985 20.9188 14.9714 19.2879Z" fill="white"/>
<path d="M31.6061 32.0126C31.1717 32.118 30.745 31.8674 30.6177 31.4396C29.9518 29.0815 28.3797 24.9689 26.0388 22.241C24.5967 20.5552 23.512 19.8535 22.7181 19.2273C22.3714 18.9555 22.3024 18.46 22.5489 18.0978L24.1924 15.6867C24.4624 15.2905 24.9988 15.1988 25.3791 15.4943C26.3183 16.2386 27.7049 17.1766 29.469 19.2256C32.7308 23.019 34.439 28.2144 35.0201 30.2835C35.1467 30.7458 34.8752 31.2109 34.4181 31.3158L31.6063 32.0011L31.6061 32.0126Z" fill="white"/>
</svg>
