<svg width="194" height="71" viewBox="0 0 194 71" fill="none" xmlns="http://www.w3.org/2000/svg">
<g id="Union">
<mask id="path-1-inside-1_7486_18331" fill="white">
<path fill-rule="evenodd" clip-rule="evenodd" d="M168.586 6.63044C168.951 7.42417 169.708 8 170.582 8H178C186.837 8 194 15.1634 194 24V55C194 63.8366 186.837 71 178 71H16C7.16344 71 0 63.8366 0 55V24C0 15.1634 7.16344 8 16 8H146.063C146.937 8 147.694 7.42417 148.06 6.63044C149.864 2.71367 153.781 0 158.323 0C162.864 0 166.781 2.71367 168.586 6.63044Z"/>
</mask>
<path fill-rule="evenodd" clip-rule="evenodd" d="M168.586 6.63044C168.951 7.42417 169.708 8 170.582 8H178C186.837 8 194 15.1634 194 24V55C194 63.8366 186.837 71 178 71H16C7.16344 71 0 63.8366 0 55V24C0 15.1634 7.16344 8 16 8H146.063C146.937 8 147.694 7.42417 148.06 6.63044C149.864 2.71367 153.781 0 158.323 0C162.864 0 166.781 2.71367 168.586 6.63044Z" fill="#0054FF" fill-opacity="0.4"/>
<path d="M148.06 6.63044L147.151 6.21208L148.06 6.63044ZM168.586 6.63044L169.494 6.21208L168.586 6.63044ZM170.582 9H178V7H170.582V9ZM178 9C186.284 9 193 15.7157 193 24H195C195 14.6112 187.389 7 178 7V9ZM193 24V55H195V24H193ZM193 55C193 63.2843 186.284 70 178 70V72C187.389 72 195 64.3888 195 55H193ZM178 70H16V72H178V70ZM16 70C7.71573 70 1 63.2843 1 55H-1C-1 64.3888 6.61116 72 16 72V70ZM1 55V24H-1V55H1ZM1 24C1 15.7157 7.71573 9 16 9V7C6.61116 7 -1 14.6112 -1 24H1ZM16 9H146.063V7H16V9ZM148.968 7.04881C150.618 3.46756 154.192 1 158.323 1V-1C153.37 -1 149.11 1.95977 147.151 6.21208L148.968 7.04881ZM158.323 1C162.453 1 166.028 3.46756 167.677 7.04881L169.494 6.21208C167.535 1.95977 163.275 -1 158.323 -1V1ZM146.063 9C147.397 9 148.47 8.12924 148.968 7.04881L147.151 6.21208C146.918 6.71909 146.477 7 146.063 7V9ZM170.582 7C170.168 7 169.727 6.71909 169.494 6.21208L167.677 7.04881C168.175 8.12924 169.248 9 170.582 9V7Z" fill="#0054FF" fill-opacity="0.7" mask="url(#path-1-inside-1_7486_18331)"/>
</g>
</svg>
