<svg width="41" height="15" viewBox="0 0 41 15" fill="none" xmlns="http://www.w3.org/2000/svg">
<path d="M2.70218 9.69615C2.36623 9.68042 2.05204 9.56085 1.79696 9.34059C1.3428 8.94726 1.15616 8.30221 1.30858 7.65401C1.45478 7.03098 2.01782 5.94855 3.15635 4.78116C3.62607 4.29973 4.14867 3.78683 4.78637 3.29596C4.8548 3.24562 4.88902 3.15751 4.87347 3.0757C4.77703 2.52505 4.63705 2.10655 4.52818 1.92404C4.35709 1.63141 4.13 1.44891 3.87492 1.39227C3.6354 1.33878 3.36788 1.40171 3.12835 1.56848C2.6213 1.9209 2.19514 2.49358 1.99916 2.78307C1.93072 2.88376 1.80007 2.90893 1.69742 2.846L1.01617 2.4275C0.904187 2.35828 0.87308 2.21353 0.944626 2.1034C1.18104 1.74783 1.72853 1.00524 2.42222 0.523806C2.94793 0.1588 3.55763 0.0266428 4.13934 0.155654C4.73037 0.287811 5.24986 0.684283 5.59515 1.2727C5.71025 1.47093 5.83779 1.78874 5.94977 2.19465C5.9871 2.33625 6.14264 2.40233 6.27329 2.33625C6.53459 2.1978 6.81144 2.06879 7.10385 1.94607C8.23304 1.47408 8.80928 1.2664 9.28211 1.12795C9.40343 1.09019 9.52786 1.16257 9.56208 1.28528L9.77361 2.0562C9.80782 2.17577 9.73939 2.30164 9.62118 2.33625C9.16702 2.47155 8.63744 2.66664 7.57668 3.10717C7.11318 3.30226 6.69946 3.51623 6.32306 3.74593C6.25152 3.78998 6.21419 3.86865 6.2173 3.95046C6.26707 4.99828 6.12709 6.18769 5.59826 7.25754C5.02278 8.42178 4.30731 9.1927 3.47053 9.54512C3.21234 9.65525 2.94793 9.70245 2.69596 9.68986L2.70218 9.69615ZM4.90146 5.3916C4.93879 5.17134 4.67749 5.02974 4.51884 5.18392C4.3602 5.33811 4.19844 5.50173 4.0429 5.66221C3.01326 6.71947 2.59642 7.61625 2.51865 7.9435C2.4751 8.12914 2.50621 8.29592 2.60575 8.38087C2.72396 8.48156 2.90438 8.42807 3.00392 8.38717C3.55452 8.15432 4.05846 7.58793 4.49396 6.70059C4.69927 6.28524 4.82681 5.83842 4.90146 5.3916Z" fill="#0054FF"/>
<path d="M9.45239 8.87757C9.33354 8.90645 9.21677 8.8378 9.18193 8.72059C8.99971 8.07455 8.56951 6.94784 7.92897 6.20051C7.53434 5.73866 7.23753 5.54642 7.02028 5.37486C6.92542 5.3004 6.90654 5.16465 6.974 5.06541L7.42371 4.40486C7.49759 4.29632 7.64437 4.2712 7.74843 4.35216C8.00543 4.55606 8.38487 4.81305 8.8676 5.37439C9.76017 6.41364 10.2276 7.83701 10.3866 8.40386C10.4212 8.53051 10.347 8.65793 10.2219 8.68667L9.45246 8.87442L9.45239 8.87757Z" fill="#0054FF"/>
<path d="M16.8807 13.9147C16.6414 13.7864 16.4571 13.6052 16.3276 13.3698C16.1982 13.1357 16.1328 12.8632 16.1328 12.5524C16.1328 12.2416 16.1982 11.9692 16.3276 11.7351C16.4571 11.501 16.6414 11.3198 16.8807 11.1902C17.1187 11.0619 17.3959 10.9971 17.7123 10.9971C18.0287 10.9971 18.3046 11.0619 18.5439 11.1902C18.7831 11.3185 18.9662 11.4997 19.0969 11.7351C19.2264 11.9692 19.2917 12.2416 19.2917 12.5524C19.2917 12.8632 19.2264 13.1357 19.0969 13.3698C18.9675 13.6039 18.7831 13.7851 18.5439 13.9147C18.3046 14.043 18.0274 14.1078 17.7123 14.1078C17.3972 14.1078 17.12 14.043 16.8807 13.9147ZM18.1791 13.3724C18.315 13.2944 18.4196 13.186 18.4929 13.0444C18.5674 12.9029 18.604 12.7389 18.604 12.5524C18.604 12.3659 18.5674 12.2019 18.4929 12.0604C18.4183 11.9189 18.3137 11.8105 18.1791 11.7324C18.0431 11.6544 17.8875 11.616 17.7123 11.616C17.5371 11.616 17.3815 11.6544 17.2468 11.7324C17.1134 11.8105 17.0088 11.9189 16.9343 12.0604C16.8598 12.2019 16.8232 12.3659 16.8232 12.5524C16.8232 12.7389 16.8598 12.9029 16.9343 13.0444C17.0088 13.186 17.1121 13.2957 17.2468 13.3724C17.3815 13.4491 17.5358 13.4888 17.7123 13.4888C17.8888 13.4888 18.0431 13.4505 18.1791 13.3724Z" fill="#0054FF"/>
<path d="M21.8276 11.0703H22.2447C22.3179 11.0703 22.3781 11.1298 22.3781 11.2052V13.902C22.3781 13.976 22.3192 14.0369 22.2447 14.0369H21.8289C21.7871 14.0369 21.7465 14.017 21.7217 13.9813L20.6783 12.5397C20.6025 12.4339 20.4364 12.4894 20.4377 12.6204L20.4416 13.0026V13.902C20.4416 13.976 20.3828 14.0369 20.3083 14.0369H19.8912C19.818 14.0369 19.7578 13.9774 19.7578 13.902V11.2052C19.7578 11.1312 19.8166 11.0703 19.8912 11.0703H20.3057C20.3475 11.0703 20.388 11.0915 20.4129 11.1259L21.4563 12.5741C21.5321 12.6799 21.6981 12.6244 21.6968 12.4934L21.6929 12.1218V11.2052C21.6929 11.1312 21.7518 11.0703 21.8263 11.0703H21.8276Z" fill="#0054FF"/>
<path d="M28.4116 11.0703C28.4822 11.0703 28.5385 11.1285 28.5385 11.1986V12.7778C28.5385 13.0463 28.4849 13.279 28.3776 13.4774C28.2704 13.6745 28.1174 13.8279 27.9187 13.935C27.72 14.0422 27.4898 14.0964 27.227 14.0964C26.8191 14.0964 26.5014 13.9813 26.2739 13.7538C26.0712 13.5502 25.9574 13.2724 25.9339 12.918C25.9287 12.8452 25.9888 12.7831 26.062 12.7831H26.4804C26.5432 12.7831 26.5994 12.8294 26.606 12.8928C26.623 13.0635 26.6766 13.1984 26.7681 13.2975C26.8766 13.4179 27.0309 13.4774 27.2283 13.4774C27.4258 13.4774 27.5761 13.4166 27.6873 13.2936C27.7971 13.1706 27.8533 12.996 27.8533 12.7698V11.8017C27.8533 11.7303 27.7958 11.6734 27.7265 11.6734H27.1264C27.0557 11.6734 26.9995 11.6152 26.9995 11.5451V11.2012C26.9995 11.1298 27.0571 11.073 27.1264 11.073H28.4129L28.4116 11.0703Z" fill="#0054FF"/>
<path d="M31.2538 13.9522L31.1048 13.5859C31.0838 13.5356 31.0355 13.5025 30.9819 13.5025H29.7162C29.6626 13.5025 29.6129 13.5356 29.5933 13.5859L29.4442 13.9522C29.4233 14.0025 29.3749 14.0356 29.3213 14.0356H28.8833C28.7866 14.0356 28.7225 13.935 28.7617 13.8451L29.9568 11.1497C29.9777 11.1007 30.0261 11.0703 30.0784 11.0703H30.638C30.6903 11.0703 30.7387 11.1021 30.7596 11.151L31.9468 13.8464C31.986 13.9364 31.9219 14.0369 31.8252 14.0369H31.3793C31.3257 14.0369 31.276 14.0038 31.2564 13.9536L31.2538 13.9522ZM30.23 12.0371L29.9502 12.7169C29.9136 12.8055 29.9777 12.9034 30.0731 12.9034H30.6288C30.7243 12.9034 30.7883 12.8055 30.753 12.7169L30.4772 12.0371C30.4314 11.926 30.2758 11.9247 30.23 12.0371Z" fill="#0054FF"/>
<path d="M35.5013 13.9953C35.3313 13.9397 35.1796 13.8656 35.045 13.7744C34.9783 13.7294 34.96 13.6382 35.0058 13.572L35.2006 13.2969C35.245 13.2334 35.3313 13.2215 35.3954 13.2639C35.6281 13.416 35.8935 13.4913 36.1904 13.4913C36.3629 13.4913 36.5015 13.4622 36.6035 13.4027C36.7055 13.3432 36.7565 13.2625 36.7565 13.1607C36.7565 13.0642 36.7094 12.9901 36.614 12.9359C36.5185 12.8816 36.3682 12.8446 36.1616 12.8221C35.7628 12.7771 35.4699 12.6819 35.2842 12.5378C35.0986 12.3936 35.0058 12.1873 35.0058 11.9188C35.0058 11.7376 35.0554 11.5789 35.1561 11.44C35.2568 11.3011 35.398 11.194 35.5784 11.1186C35.7602 11.0419 35.9694 11.0049 36.2073 11.0049C36.4113 11.0049 36.6101 11.034 36.8036 11.0935C36.9435 11.1358 37.0716 11.1914 37.1867 11.2588C37.2586 11.3011 37.2821 11.3937 37.2364 11.4625L37.069 11.7151C37.0272 11.7786 36.9448 11.7945 36.8781 11.7561C36.6807 11.6437 36.4662 11.5881 36.2348 11.5881C36.0648 11.5881 35.9289 11.6159 35.8269 11.6728C35.7249 11.7297 35.6739 11.805 35.6739 11.9016C35.6739 11.9981 35.7183 12.0669 35.8059 12.1172C35.8935 12.1674 36.0413 12.2058 36.2479 12.2309C36.6441 12.2759 36.9409 12.3751 37.1357 12.5298C37.3305 12.6832 37.4286 12.8949 37.4286 13.1633C37.4286 13.3498 37.3776 13.5138 37.2743 13.6567C37.171 13.7995 37.0258 13.9093 36.8389 13.9873C36.6519 14.0653 36.4362 14.1037 36.1943 14.1037C35.9524 14.1037 35.7236 14.0667 35.5013 13.9939V13.9953Z" fill="#0054FF"/>
<path d="M38.4549 13.9147C38.2157 13.7864 38.0313 13.6052 37.9018 13.3698C37.7724 13.1357 37.707 12.8632 37.707 12.5524C37.707 12.2416 37.7724 11.9692 37.9018 11.7351C38.0313 11.501 38.2157 11.3198 38.4549 11.1902C38.6929 11.0619 38.9701 10.9971 39.2865 10.9971C39.6029 10.9971 39.8788 11.0619 40.1181 11.1902C40.3573 11.3185 40.5404 11.4997 40.6711 11.7351C40.8006 11.9692 40.866 12.2416 40.866 12.5524C40.866 12.8632 40.8006 13.1357 40.6711 13.3698C40.5417 13.6039 40.3573 13.7851 40.1181 13.9147C39.8788 14.043 39.6016 14.1078 39.2865 14.1078C38.9714 14.1078 38.6942 14.043 38.4549 13.9147ZM39.7533 13.3724C39.8893 13.2944 39.9939 13.186 40.0671 13.0444C40.1416 12.9029 40.1782 12.7389 40.1782 12.5524C40.1782 12.3659 40.1416 12.2019 40.0671 12.0604C39.9925 11.9189 39.8879 11.8105 39.7533 11.7324C39.6173 11.6544 39.4617 11.616 39.2865 11.616C39.1113 11.616 38.9557 11.6544 38.821 11.7324C38.6877 11.8105 38.5831 11.9189 38.5085 12.0604C38.434 12.2019 38.3974 12.3659 38.3974 12.5524C38.3974 12.7389 38.434 12.9029 38.5085 13.0444C38.5831 13.186 38.6864 13.2957 38.821 13.3724C38.9557 13.4491 39.11 13.4888 39.2865 13.4888C39.463 13.4888 39.6173 13.4505 39.7533 13.3724Z" fill="#0054FF"/>
<path d="M34.0258 11.0703C33.9879 11.0703 33.9526 11.0875 33.9291 11.1166L33.4231 11.7276C33.1524 12.0543 33.1367 12.3466 33.1367 12.5543C33.1367 12.8188 33.2269 13.0568 33.359 13.2645C33.4832 13.4576 33.8755 13.8716 33.9984 13.9985C34.0219 14.0236 34.0546 14.0369 34.0886 14.0369H34.639C34.7489 14.0369 34.8077 13.9046 34.7332 13.8226C34.5057 13.5713 34.1461 13.1719 34.0324 13.0317C33.8846 12.8492 33.8454 12.6892 33.8428 12.5543C33.8402 12.3955 33.8572 12.2276 34.0324 11.9922C34.1775 11.7991 34.4115 11.5359 34.6312 11.2846C34.7031 11.2012 34.6456 11.0716 34.5357 11.0716H34.0284L34.0258 11.0703Z" fill="#0054FF"/>
<path d="M32.8577 11.0703H32.4654C32.3853 11.0703 32.3203 11.136 32.3203 11.2171V13.8887C32.3203 13.9698 32.3853 14.0356 32.4654 14.0356H32.8577C32.9379 14.0356 33.0028 13.9698 33.0028 13.8887V11.2171C33.0028 11.136 32.9379 11.0703 32.8577 11.0703Z" fill="#0054FF"/>
<path d="M15.8404 13.305V12.2959C15.8404 12.2152 15.7763 12.1504 15.6965 12.1504H14.6048C14.525 12.1504 14.4609 12.2152 14.4609 12.2959V12.5604C14.4609 12.6411 14.525 12.7059 14.6048 12.7059H15.1134C15.1931 12.7059 15.2572 12.7707 15.2572 12.8514V13.0722C15.2572 13.1251 15.286 13.1741 15.3317 13.1992L15.6887 13.3963C15.7854 13.4452 15.839 13.3566 15.839 13.3063L15.8404 13.305Z" fill="#0054FF"/>
<path d="M15.2084 13.2901C15.0437 13.4356 14.8227 13.507 14.5468 13.507C14.3703 13.507 14.216 13.4673 14.0814 13.388C13.9467 13.3086 13.8434 13.1975 13.7715 13.0533C13.6996 12.9092 13.663 12.7425 13.663 12.5534C13.663 12.2598 13.744 12.027 13.9075 11.8564C14.0709 11.6858 14.2932 11.5998 14.5756 11.5998C14.7064 11.5998 14.8345 11.625 14.9587 11.6765C15.0437 11.7109 15.1208 11.7559 15.1914 11.8101C15.2477 11.8538 15.3274 11.8471 15.3784 11.7969L15.5915 11.584C15.653 11.5231 15.6478 11.4226 15.5824 11.3657C15.4608 11.2599 15.3313 11.1766 15.1941 11.1171C15.011 11.0377 14.807 10.998 14.5808 10.998C14.2683 10.998 13.9912 11.0642 13.7493 11.1951C13.5074 11.326 13.3204 11.5099 13.1857 11.7453C13.0524 11.9807 12.9844 12.2505 12.9844 12.5521C12.9844 12.8536 13.0471 13.1353 13.1753 13.3694C13.3021 13.6035 13.4825 13.7847 13.7153 13.9117C13.948 14.0387 14.22 14.1022 14.5298 14.1022C14.79 14.1022 15.028 14.0585 15.2437 13.9725C15.3876 13.9157 15.517 13.8416 15.6308 13.7504C15.7118 13.6855 15.6988 13.5559 15.6085 13.507L15.2097 13.2874L15.2084 13.2901Z" fill="#0054FF"/>
<path d="M25.6997 13.304V12.2949C25.6997 12.2142 25.6357 12.1494 25.5559 12.1494H24.4641C24.3844 12.1494 24.3203 12.2142 24.3203 12.2949V12.5594C24.3203 12.6401 24.3844 12.7049 24.4641 12.7049H24.9728C25.0525 12.7049 25.1166 12.7697 25.1166 12.8504V13.0713C25.1166 13.1242 25.1453 13.1731 25.1911 13.1982L25.5481 13.3953C25.6448 13.4442 25.6984 13.3556 25.6984 13.3054L25.6997 13.304Z" fill="#0054FF"/>
<path d="M25.0678 13.2891C24.9031 13.4346 24.6821 13.506 24.4062 13.506C24.2297 13.506 24.0754 13.4663 23.9407 13.387C23.8061 13.3076 23.7028 13.1965 23.6309 13.0524C23.559 12.9082 23.5223 12.7416 23.5223 12.5524C23.5223 12.2588 23.6034 12.026 23.7668 11.8554C23.9303 11.6848 24.1526 11.5988 24.435 11.5988C24.5657 11.5988 24.6939 11.624 24.8181 11.6756C24.9031 11.7099 24.9802 11.7549 25.0508 11.8091C25.107 11.8528 25.1868 11.8462 25.2378 11.7959L25.4509 11.583C25.5124 11.5221 25.5071 11.4216 25.4418 11.3647C25.3202 11.2589 25.1907 11.1756 25.0534 11.1161C24.8704 11.0367 24.6664 10.9971 24.4402 10.9971C24.1277 10.9971 23.8505 11.0632 23.6086 11.1941C23.3668 11.3251 23.1798 11.5089 23.0451 11.7443C22.9117 11.9798 22.8438 12.2496 22.8438 12.5511C22.8438 12.8527 22.9065 13.1344 23.0346 13.3685C23.1615 13.6026 23.3419 13.7838 23.5746 13.9107C23.8074 14.0377 24.0793 14.1012 24.3892 14.1012C24.6494 14.1012 24.8874 14.0575 25.1031 13.9716C25.2469 13.9147 25.3764 13.8406 25.4901 13.7494C25.5712 13.6846 25.5581 13.555 25.4679 13.506L25.0691 13.2865L25.0678 13.2891Z" fill="#0054FF"/>
<path d="M17.4108 9.50069C16.1354 9.50069 15.148 9.35503 14.4485 9.06668C13.7491 8.77833 13.4023 8.31459 13.4023 7.68141C13.4023 7.04823 13.7521 6.58747 14.4485 6.30209C15.145 6.01671 16.1354 5.87402 17.4108 5.87402C18.6863 5.87402 19.6737 6.01671 20.3731 6.30209C21.0726 6.58747 21.4193 7.04823 21.4193 7.68141C21.4193 8.31459 21.0696 8.77833 20.3731 9.06668C19.6766 9.35503 18.6863 9.50069 17.4108 9.50069ZM17.4108 8.29973C18.2895 8.29973 18.9331 8.24325 19.3416 8.13326C19.7501 8.02327 19.9558 7.87167 19.9558 7.67844C19.9558 7.48522 19.7501 7.33658 19.3416 7.22362C18.9331 7.11066 18.2895 7.05715 17.4108 7.05715C16.5321 7.05715 15.8886 7.11363 15.4801 7.22362C15.0716 7.33361 14.8659 7.48522 14.8659 7.67844C14.8659 7.87167 15.0686 8.0203 15.4801 8.13326C15.8886 8.24325 16.5321 8.29973 17.4108 8.29973Z" fill="#0054FF"/>
<path d="M13.6875 0.653154V1.44686C13.6875 1.58658 13.7992 1.70251 13.9402 1.70251H19.3976C19.5269 1.70251 19.6327 1.79764 19.6473 1.92546C19.6797 2.21678 19.7002 2.76079 19.5151 3.38505C19.4651 3.55152 19.5856 3.71799 19.7561 3.71799H20.6759C20.7847 3.71799 20.8846 3.64664 20.9169 3.53963C21.055 3.09373 21.346 1.87493 20.9228 0.566947C20.8875 0.462903 20.7905 0.394531 20.6818 0.394531H13.9461C13.808 0.394531 13.6934 0.507493 13.6934 0.650182L13.6875 0.653154Z" fill="#0054FF"/>
<path d="M23.8545 6.4451V7.23584C23.8545 7.37853 23.9691 7.49446 24.1102 7.49446H29.5616C29.6909 7.49446 29.7997 7.58959 29.8144 7.72038C29.8467 8.01171 29.8673 8.55571 29.6821 9.177C29.6321 9.34347 29.7526 9.51291 29.9231 9.51291H30.837C30.9487 9.51291 31.0457 9.44157 31.078 9.33455C31.2162 8.88865 31.5071 7.66985 31.0839 6.36484C31.0486 6.2608 30.9487 6.18945 30.84 6.18945H24.1072C23.9662 6.18945 23.8516 6.30539 23.8516 6.44808L23.8545 6.4451Z" fill="#0054FF"/>
<path d="M16.6692 4.65625H17.5979C17.7358 4.65625 17.8477 4.54312 17.8477 4.40357V2.90237C17.8477 2.76282 17.7358 2.64969 17.5979 2.64969H16.6692C16.5312 2.64969 16.4194 2.76282 16.4194 2.90237V4.40357C16.4194 4.54312 16.5312 4.65625 16.6692 4.65625Z" fill="#0054FF"/>
<path d="M13.1133 4.25626V5.05591C13.1133 5.19546 13.2251 5.30859 13.3631 5.30859L21.5446 5.30859C21.6826 5.30859 21.7944 5.19546 21.7944 5.05591V4.25626C21.7944 4.11671 21.6826 4.00359 21.5446 4.00359H13.3631C13.2251 4.00359 13.1133 4.11671 13.1133 4.25626Z" fill="#0054FF"/>
<path d="M28.6297 0.400391H23.2576C23.1197 0.400391 23.0078 0.513518 23.0078 0.653069V1.45272C23.0078 1.59227 23.1197 1.7054 23.2576 1.7054H28.6297C28.7677 1.7054 28.8795 1.59227 28.8795 1.45272V0.653069C28.8795 0.513518 28.7677 0.400391 28.6297 0.400391Z" fill="#0054FF"/>
<path d="M40.6587 8.20312H32.8386C32.7055 8.20312 32.5977 8.31226 32.5977 8.44689V9.26437C32.5977 9.399 32.7055 9.50813 32.8386 9.50813H40.6587C40.7918 9.50813 40.8997 9.399 40.8997 9.26437V8.44689C40.8997 8.31226 40.7918 8.20312 40.6587 8.20312Z" fill="#0054FF"/>
<path d="M30.9375 5.45692V0.653066C30.9375 0.513516 30.8257 0.400391 30.6877 0.400391L29.8972 0.400391C29.7592 0.400391 29.6474 0.513516 29.6474 0.653066V5.45692C29.6474 5.59647 29.7592 5.7096 29.8972 5.7096H30.6877C30.8257 5.7096 30.9375 5.59647 30.9375 5.45692Z" fill="#0054FF"/>
<path d="M25.3738 2.03261C25.2765 2.03239 25.1973 2.1105 25.1949 2.20777C25.1776 2.90102 25.1144 3.37163 24.593 3.71774C24.4167 3.83664 23.9788 4.03284 23.1677 4.06851C23.0355 4.07446 22.9297 4.18742 22.9297 4.32416V5.03463C22.9297 5.1803 23.0502 5.2992 23.1971 5.29029C23.4528 5.27542 23.873 5.23083 24.3638 5.10895C24.3697 5.10895 24.3756 5.10598 24.3814 5.10301C24.4373 5.08517 24.7341 4.99004 24.9604 4.89789C25.5452 4.6571 25.986 4.26174 26.227 3.72071C26.4476 3.22544 26.4613 2.85721 26.4824 2.21924C26.4857 2.11869 26.4052 2.03501 26.3046 2.03477L25.3738 2.03261Z" fill="#0054FF"/>
<path d="M37.3984 8.36122V6.11685C37.3984 5.98058 37.2892 5.87012 37.1545 5.87012H36.3522C36.2175 5.87012 36.1083 5.98058 36.1083 6.11685V8.36122C36.1083 8.49749 36.2175 8.60796 36.3522 8.60796H37.1545C37.2892 8.60796 37.3984 8.49749 37.3984 8.36122Z" fill="#0054FF"/>
<path d="M30.355 3.70605H31.5158C31.6538 3.70605 31.7656 3.59293 31.7656 3.45338V2.65373C31.7656 2.51418 31.6538 2.40105 31.5158 2.40105H30.355C30.2171 2.40105 30.1052 2.51418 30.1052 2.65373V3.45338C30.1052 3.59293 30.2171 3.70605 30.355 3.70605Z" fill="#0054FF"/>
<path d="M27.1696 3.90758C27.0931 3.86737 27.0121 3.82419 26.9326 3.77577C26.8213 3.70799 26.6638 3.7572 26.612 3.87675C26.5993 3.90606 26.5855 3.9365 26.5701 3.97C26.5025 4.10972 26.4202 4.23457 26.3291 4.35051C26.238 4.46644 26.2615 4.63291 26.3791 4.71615C26.5436 4.83208 26.6348 4.86478 26.814 4.94801C27.1343 5.09368 27.3165 5.15313 27.9131 5.26015C28.1747 5.30771 28.4568 5.3196 28.6508 5.3196C28.7889 5.3196 28.9035 5.20664 28.9035 5.06692V4.49022C28.9035 4.35051 28.7918 4.23754 28.6537 4.23754C28.4362 4.23754 28.2481 4.2316 28.0689 4.1989C27.6633 4.12458 27.393 4.02054 27.1696 3.90758Z" fill="#0054FF"/>
<path d="M36.3462 0.400391C36.211 0.400391 36.1022 0.51038 36.1022 0.647123V1.36948C36.1022 1.59541 36.0934 2.01753 36.0699 2.24345C36.0023 2.87663 35.8025 3.63764 35.4146 4.05084C35.0266 4.46405 34.3919 4.90103 33.4955 4.86239H33.2869C33.1517 4.86239 33.043 4.97237 33.043 5.10912V5.88499C33.043 6.02173 33.1517 6.13172 33.2869 6.13172H33.4779C33.4779 6.13172 33.4897 6.13172 33.4955 6.13172C34.2949 6.07524 34.4448 6.03362 35.1618 5.79581C35.2823 5.75716 35.3999 5.70365 35.5086 5.64123C35.7731 5.48665 35.8524 5.43909 36.1022 5.21316C36.5724 4.79104 36.8222 4.41054 37.0662 3.86951C37.3101 3.32848 37.3953 2.35939 37.3953 1.46164V0.647123C37.3953 0.51038 37.2866 0.400391 37.1514 0.400391H36.3462Z" fill="#0054FF"/>
<path d="M40.0176 4.88989C39.1918 4.88989 38.5041 4.51533 38.0633 4.22698C37.9628 4.16123 37.8769 4.10215 37.7533 3.99426C37.6523 3.90612 37.4898 3.94708 37.4411 4.07197C37.4155 4.13764 37.3869 4.2059 37.3551 4.27752C37.2757 4.45588 37.1875 4.60748 37.0935 4.75017C37.0259 4.85124 37.0406 4.98204 37.1229 5.06825C37.2257 5.17229 37.3345 5.27336 37.4697 5.37741C37.6342 5.50523 37.9369 5.66576 38.0369 5.71332C38.3307 5.85006 38.604 5.95411 38.7539 5.99573C39.2917 6.14436 39.6914 6.15922 39.95 6.15922H40.3409C40.479 6.15922 40.5907 6.04626 40.5907 5.90655V5.13959C40.5907 4.99988 40.479 4.88692 40.3409 4.88692H40.0176V4.88989Z" fill="#0054FF"/>
</svg>
