<svg width="19" height="17" viewBox="0 0 19 17" fill="none" xmlns="http://www.w3.org/2000/svg">
<path fill-rule="evenodd" clip-rule="evenodd" d="M6.125 0.0625C6.59099 0.0625 6.96875 0.44026 6.96875 0.90625L6.96875 2.3125H12.0312V0.90625C12.0312 0.44026 12.409 0.0625 12.875 0.0625C13.341 0.0625 13.7188 0.44026 13.7188 0.90625V2.3125H15.125C16.989 2.3125 18.5 3.82354 18.5 5.6875V13.5625C18.5 15.4265 16.989 16.9375 15.125 16.9375H3.875C2.01104 16.9375 0.5 15.4265 0.5 13.5625V5.6875C0.5 3.82354 2.01104 2.3125 3.875 2.3125H5.28125L5.28125 0.90625C5.28125 0.44026 5.65901 0.0625 6.125 0.0625ZM12.0313 4V4.28125C12.0313 4.74724 12.409 5.125 12.875 5.125C13.341 5.125 13.7188 4.74724 13.7188 4.28125V4H15.125C16.057 4 16.8125 4.75552 16.8125 5.6875V7.09375H2.1875V5.6875C2.1875 4.75552 2.94302 4 3.875 4H5.28125V4.28125C5.28125 4.74724 5.65901 5.125 6.125 5.125C6.59099 5.125 6.96875 4.74724 6.96875 4.28125V4H12.0313ZM2.1875 8.78125V13.5625C2.1875 14.4945 2.94302 15.25 3.875 15.25H15.125C16.057 15.25 16.8125 14.4945 16.8125 13.5625V8.78125H2.1875Z" fill="black"/>
</svg>
