<svg width="52" height="52" viewBox="0 0 52 52" fill="none" xmlns="http://www.w3.org/2000/svg">
<circle cx="26" cy="26" r="24" fill="white"/>
<path d="M15.6285 20.5384C15.4403 18.6269 16.9421 16.9701 18.8629 16.9701H32.0512C33.972 16.9701 35.4737 18.6269 35.2856 20.5384L33.8637 34.9829C33.6999 36.6465 32.3009 37.9145 30.6293 37.9145H20.2847C18.6131 37.9145 17.2141 36.6465 17.0504 34.9829L15.6285 20.5384Z" stroke="#FF7E7E" stroke-width="2.16667" stroke-linejoin="round"/>
<path d="M29.2493 16.6111L29.2493 15.1667C29.2493 13.9701 28.2793 13 27.0827 13L23.8327 13C22.6361 13 21.666 13.97 21.666 15.1667L21.666 16.6111" stroke="#FF7E7E" stroke-width="2.16667" stroke-linecap="round"/>
<path d="M22.4238 23.1133V33.2244" stroke="#FF7E7E" stroke-width="2.16667" stroke-linecap="round"/>
<path d="M28.4922 23.1133V33.2244" stroke="#FF7E7E" stroke-width="2.16667" stroke-linecap="round"/>
</svg>
