<svg width="11" height="11" viewBox="0 0 11 11" fill="none" xmlns="http://www.w3.org/2000/svg">
<path d="M5.4999 2.27344C5.62145 2.27344 5.73803 2.32173 5.82399 2.40768C5.90994 2.49363 5.95823 2.61021 5.95823 2.73177V6.50051L7.00919 5.44955C7.09563 5.36606 7.21141 5.31986 7.33158 5.32091C7.45175 5.32195 7.56671 5.37015 7.65169 5.45513C7.73667 5.54011 7.78487 5.65507 7.78591 5.77524C7.78696 5.89541 7.74076 6.01119 7.65727 6.09763L5.82394 7.93096C5.73799 8.01689 5.62143 8.06516 5.4999 8.06516C5.37836 8.06516 5.2618 8.01689 5.17585 7.93096L3.34252 6.09763C3.29874 6.05535 3.26383 6.00478 3.23981 5.94886C3.21579 5.89294 3.20314 5.8328 3.20261 5.77194C3.20208 5.71108 3.21368 5.65073 3.23673 5.5944C3.25977 5.53808 3.2938 5.4869 3.33684 5.44387C3.37987 5.40084 3.43105 5.3668 3.48737 5.34376C3.5437 5.32071 3.60405 5.30912 3.66491 5.30964C3.72577 5.31017 3.78591 5.32282 3.84183 5.34684C3.89775 5.37086 3.94832 5.40577 3.9906 5.44955L5.04156 6.50051V2.73177C5.04156 2.61021 5.08985 2.49363 5.1758 2.40768C5.26176 2.32173 5.37834 2.27344 5.4999 2.27344ZM1.54134 7.79196C1.6629 7.79196 1.77948 7.84025 1.86543 7.92621C1.95139 8.01216 1.99967 8.12874 1.99967 8.2503V9.16696H9.00022V8.2503C9.00022 8.12874 9.04851 8.01216 9.13446 7.92621C9.22042 7.84025 9.337 7.79196 9.45855 7.79196C9.58011 7.79196 9.69669 7.84025 9.78265 7.92621C9.8686 8.01216 9.91689 8.12874 9.91689 8.2503V9.16696C9.91689 9.41008 9.82031 9.64324 9.6484 9.81515C9.47649 9.98705 9.24334 10.0836 9.00022 10.0836H1.99967C1.75656 10.0836 1.5234 9.98705 1.35149 9.81515C1.17958 9.64324 1.08301 9.41008 1.08301 9.16696V8.2503C1.08301 8.12874 1.1313 8.01216 1.21725 7.92621C1.3032 7.84025 1.41978 7.79196 1.54134 7.79196Z" fill="black"/>
</svg>
