<svg width="250" height="47" viewBox="0 0 250 47" fill="none" xmlns="http://www.w3.org/2000/svg">
<path d="M113.069 15.4686V21.016C113.069 21.8567 113.385 22.663 113.948 23.2575C114.511 23.852 115.275 24.186 116.071 24.186H134.082C134.878 24.186 135.641 23.852 136.204 23.2575C136.767 22.663 137.083 21.8567 137.083 21.016V15.4686M125.077 16.2893V2M125.077 2L118.216 7.73552M125.077 2L131.938 7.73553" stroke="#FF9494" stroke-width="3" stroke-linecap="round" stroke-linejoin="round"/>
<path d="M7.01933 35.2187V36.4427H6.05933V41.0867C6.49133 41.0507 6.92333 41.0027 7.33133 40.9547L7.40333 42.0347C5.21933 42.4067 2.78333 42.4547 0.947328 42.4667L0.779328 41.2427H2.00333V36.4427H1.06733V35.2187H7.01933ZM3.44333 41.2187L4.61933 41.1707V36.4427H3.44333V41.2187ZM7.83533 44.9147V34.2347H9.34733V38.3147H10.9073V39.5147H9.34733V44.9147H7.83533ZM14.3424 34.5707C15.9504 34.5587 17.1744 35.5787 17.1744 36.9947C17.1744 38.4107 15.9504 39.4187 14.3424 39.4187C12.6864 39.4187 11.4624 38.4107 11.4624 36.9947C11.4624 35.5787 12.6864 34.5587 14.3424 34.5707ZM12.9264 36.9947C12.9024 37.7627 13.5144 38.2187 14.3424 38.2187C15.1344 38.2187 15.7344 37.7627 15.7344 36.9947C15.7344 36.2387 15.1344 35.7827 14.3424 35.7947C13.5144 35.7827 12.9024 36.2387 12.9264 36.9947ZM13.0704 41.1947V40.0427H20.2224V42.9227H14.5584V43.6187H20.5104V44.7947H13.0944V41.8427H18.7344V41.1947H13.0704ZM18.7344 39.5867V34.2347H20.2224V39.5867H18.7344ZM33.1671 35.1947V36.4427C33.1671 37.9787 33.1671 39.4547 32.6631 41.7707L31.1751 41.6267C31.3911 40.7507 31.5111 39.9707 31.5831 39.2507L25.4151 39.5387L25.2231 38.3387L31.6671 38.1107C31.6911 37.5347 31.7031 36.9827 31.7031 36.4427V36.3947H25.5591V35.1947H33.1671ZM24.4311 43.6187V42.4187H34.1751V43.6187H24.4311ZM43.7782 34.2347V44.9147H42.2662V34.2347H43.7782ZM34.8502 41.8907C37.5982 40.5827 38.8102 38.9027 39.0502 36.5387H35.4022V35.3627H40.5622C40.5742 38.5907 39.4342 41.2907 35.6182 43.0907L34.8502 41.8907ZM53.5973 34.2347V38.3387H55.1093V39.5627H53.5973V44.8907H52.0853V34.2347H53.5973ZM45.0533 41.9147C47.5853 40.6427 48.9293 38.9387 49.2173 36.5627H45.6773V35.3387H50.7413C50.7293 38.5307 49.4933 41.2907 45.9173 43.0427L45.0533 41.9147ZM62.318 35.3387V43.8347H60.566V37.0187H60.494L58.55 38.2427V36.6827L60.662 35.3387H62.318ZM67.5713 43.9547C65.4473 43.9547 64.1633 42.3707 64.1633 39.5867C64.1633 36.8147 65.4593 35.2307 67.5713 35.2427C69.6833 35.2307 70.9793 36.8267 70.9793 39.5867C70.9793 42.3827 69.6953 43.9547 67.5713 43.9547ZM65.9633 39.5867C65.9513 41.5547 66.5873 42.4907 67.5713 42.4907C68.5553 42.4907 69.1913 41.5547 69.1793 39.5867C69.1793 37.6547 68.5553 36.6827 67.5713 36.6827C66.5993 36.6827 65.9633 37.6547 65.9633 39.5867ZM72.2532 35.3387H74.4132L76.7892 41.0987H76.8852L79.2372 35.3387H81.4212V43.8347H79.6932V38.2667H79.6212L77.4132 43.7867H76.2372L74.0292 38.2667H73.9572V43.8347H72.2532V35.3387ZM82.8352 43.8347V35.3387H86.2192C88.0792 35.3507 89.0152 36.2507 89.0272 37.5227C89.0152 38.5307 88.3672 39.1547 87.4912 39.3467V39.4427C88.4512 39.4787 89.3512 40.2347 89.3632 41.5067C89.3512 42.8387 88.3432 43.8347 86.4352 43.8347H82.8352ZM84.5872 42.3947H86.0752C87.0952 42.3827 87.5392 41.9627 87.5392 41.3147C87.5392 40.6067 86.9872 40.1027 86.1232 40.1147H84.5872V42.3947ZM84.5872 38.9147H85.9552C86.6872 38.9027 87.2392 38.4947 87.2512 37.8107C87.2392 37.1987 86.7832 36.7787 85.9792 36.7787H84.5872V38.9147ZM99.8001 39.0347V40.1387H90.0561V39.0347H99.8001ZM91.1601 41.6987V40.6667H98.6481V43.1867H92.6721V43.7867H98.9601V44.8187H91.1841V42.2507H97.1601V41.6987H91.1601ZM91.2561 38.5307V35.9867H97.1361V35.4587H91.2561V34.4507H98.6241V36.9467H92.7441V37.5227H98.8161V38.5307H91.2561ZM112.961 42.4907V43.6907H103.193V42.4907H107.321V40.3787H108.809V42.4907H112.961ZM103.529 39.5867C105.953 39.2987 107.165 38.0867 107.285 36.8987H104.033V35.6987H107.321V34.3787H108.809V35.6987H112.097V36.8987H108.845C108.965 38.0867 110.177 39.2987 112.601 39.5867L112.073 40.7627C110.153 40.5107 108.773 39.7067 108.065 38.6147C107.357 39.7067 105.989 40.5107 104.081 40.7627L103.529 39.5867ZM119.564 35.3147V36.1787C119.552 37.1747 119.552 38.4827 119.276 40.2587L117.812 40.1387C118.052 38.6027 118.076 37.4507 118.076 36.5147H114.044V35.3147H119.564ZM113.468 41.5547C114.068 41.5427 114.74 41.5427 115.436 41.5187V38.3627H116.9V41.4707C117.944 41.4227 119.012 41.3507 119.996 41.2187L120.092 42.3467C117.896 42.7067 115.484 42.7427 113.612 42.7307L113.468 41.5547ZM120.5 44.9147V34.2347H122.012V38.5307H123.476V39.7787H122.012V44.9147H120.5ZM132.359 34.2347V38.4347H133.919V39.6587H132.359V44.9147H130.871V34.2347H132.359ZM123.887 37.0427V35.8427H126.287V34.4027H127.799V35.8427H130.151V37.0427H123.887ZM124.319 40.1867C124.307 38.6867 125.471 37.6307 127.055 37.6427C128.603 37.6307 129.767 38.6867 129.767 40.1867C129.767 41.6627 128.603 42.7187 127.055 42.7067C125.471 42.7187 124.307 41.6627 124.319 40.1867ZM125.759 40.1867C125.747 41.0027 126.287 41.4947 127.055 41.4827C127.787 41.4947 128.327 41.0027 128.327 40.1867C128.327 39.3587 127.787 38.8547 127.055 38.8427C126.287 38.8547 125.747 39.3587 125.759 40.1867ZM137.258 35.0027C138.206 35.0027 139.01 35.5307 139.49 36.4427H141.842V34.2347H143.306V44.9387H141.842V40.9547H139.598C139.118 42.0107 138.278 42.6107 137.258 42.6107C135.626 42.6107 134.474 41.1347 134.474 38.7947C134.474 36.4667 135.626 35.0027 137.258 35.0027ZM135.914 38.7947C135.902 40.3907 136.454 41.2427 137.258 41.2427C138.062 41.2427 138.59 40.3907 138.602 38.7947C138.59 37.2107 138.062 36.3467 137.258 36.3467C136.454 36.3467 135.902 37.2107 135.914 38.7947ZM139.91 37.6427C139.982 38.0027 140.018 38.3867 140.018 38.7947C140.018 39.1307 139.994 39.4547 139.946 39.7547H141.842V37.6427H139.91ZM150.419 34.6907C151.775 34.6907 152.867 35.4707 153.167 36.6107H154.955V34.2347H156.443V39.9707H154.955V37.8107H153.179C152.891 38.9747 151.799 39.7787 150.419 39.7787C148.787 39.7787 147.575 38.7107 147.587 37.2347C147.575 35.7587 148.787 34.6907 150.419 34.6907ZM149.003 37.2347C149.003 38.0267 149.591 38.5307 150.419 38.5307C151.235 38.5307 151.811 38.0267 151.811 37.2347C151.811 36.4307 151.235 35.9387 150.419 35.9387C149.591 35.9387 149.003 36.4307 149.003 37.2347ZM149.315 44.7947V40.4507H150.803V41.4827H154.955V40.4507H156.443V44.7947H149.315ZM150.803 43.5947H154.955V42.6347H150.803V43.5947ZM167.582 42.4907V43.7147H157.814V42.4907H161.942V40.8827H158.942V37.3067H164.966V36.1307H158.918V34.9307H166.454V38.4827H160.43V39.6827H166.694V40.8827H163.406V42.4907H167.582ZM176.873 39.1787V40.3787H169.337V35.1467H176.801V36.3467H170.825V39.1787H176.873ZM168.185 43.6187V42.3947H177.953V43.6187H168.185ZM187.028 34.2347V36.5387H188.468V37.7387H187.028V40.0187H185.516V34.2347H187.028ZM178.556 36.1787V35.0507H180.98V34.1627H182.468V35.0507H184.892V36.1787H178.556ZM179.084 38.1947C179.084 37.1267 180.128 36.4427 181.724 36.4427C183.32 36.4427 184.352 37.1267 184.364 38.1947C184.352 39.2747 183.32 39.9227 181.724 39.9227C180.128 39.9227 179.084 39.2747 179.084 38.1947ZM179.948 41.5067V40.4507H187.028V43.1147H181.436V43.7387H187.34V44.8427H179.972V42.1067H185.54V41.5067H179.948ZM180.548 38.1947C180.536 38.6387 180.992 38.8547 181.724 38.8667C182.468 38.8547 182.924 38.6387 182.924 38.1947C182.924 37.7387 182.468 37.4867 181.724 37.4987C180.992 37.4867 180.536 37.7387 180.548 38.1947ZM197.357 35.0747C197.357 36.3347 198.641 37.7267 201.077 38.0267L200.501 39.2507C198.629 38.9747 197.261 38.1107 196.577 36.9467C195.881 38.1107 194.513 38.9747 192.653 39.2507L192.077 38.0267C194.501 37.7267 195.785 36.3347 195.773 35.0747V34.5707H197.357V35.0747ZM191.693 41.2667V40.0427H201.437V41.2667H197.285V44.9147H195.797V41.2667H191.693ZM207.398 40.4987V41.5547H208.55V40.4987H209.918V43.7147C211.118 43.1987 211.622 42.1907 211.622 41.2187V40.4027H213.11V41.2187C213.11 42.3107 213.638 43.3427 214.958 43.7627L214.19 44.8907C213.278 44.5667 212.69 43.9667 212.342 43.2107C211.994 43.9427 211.406 44.5547 210.542 44.8907L209.918 43.9427V44.7947H206.006V40.4987H207.398ZM204.974 37.1627C204.962 35.6867 206.174 34.6547 207.806 34.6427C209.162 34.6547 210.242 35.3987 210.554 36.5387H212.342V34.2347H213.83V39.8987H212.342V37.7627H210.554C210.266 38.9267 209.174 39.6827 207.806 39.6827C206.174 39.6827 204.962 38.6507 204.974 37.1627ZM206.39 37.1627C206.39 37.9667 206.978 38.4587 207.806 38.4587C208.622 38.4587 209.198 37.9667 209.198 37.1627C209.198 36.3707 208.622 35.8787 207.806 35.8907C206.978 35.8787 206.39 36.3707 206.39 37.1627ZM207.398 43.6667H208.55V42.6587H207.398V43.6667ZM217.817 40.6427V41.5547H222.209V40.6427H223.697V44.7947H216.353V40.6427H217.817ZM215.201 40.1147V38.9147H224.945V40.1147H215.201ZM215.681 37.2587C218.069 36.9707 219.293 35.8067 219.305 34.7147V34.3547H220.841V34.7147C220.841 35.7827 222.065 36.9947 224.441 37.2587L223.913 38.4347C222.077 38.2067 220.745 37.4387 220.073 36.4067C219.377 37.4387 218.045 38.2067 216.233 38.4347L215.681 37.2587ZM217.817 43.6187H222.209V42.6827H217.817V43.6187ZM234.548 34.2347V44.9147H233.06V34.2347H234.548ZM226.148 42.2747V35.2667H227.636V41.0027C229.076 40.9787 230.624 40.8467 232.196 40.5467L232.364 41.7707C230.504 42.1667 228.74 42.2867 227.084 42.2747H226.148ZM244.367 34.2347V38.2187H245.927V39.4187H244.367V44.9387H242.855V34.2347H244.367ZM236.375 42.3467V35.2427H241.367V36.4427H237.863V41.1227C239.411 41.0987 240.683 41.0267 242.087 40.7867L242.255 42.0347C240.611 42.3107 239.159 42.3587 237.263 42.3467H236.375ZM247.706 43.9307C247.154 43.9427 246.698 43.4987 246.722 42.9467C246.698 42.4187 247.154 41.9747 247.706 41.9867C248.222 41.9747 248.678 42.4187 248.69 42.9467C248.678 43.4987 248.222 43.9427 247.706 43.9307Z" fill="#FF9494"/>
</svg>
