<svg width="208" height="62" viewBox="0 0 208 62" fill="none" xmlns="http://www.w3.org/2000/svg">
<rect x="61.425" y="0.239015" width="61.1878" height="61.1878" rx="14.1019" transform="rotate(90 61.425 0.239015)" stroke="#0054FF" stroke-width="0.47803"/>
<path d="M18.5783 51C17.1606 50.9344 15.8349 50.4356 14.7585 49.5167C12.8421 47.876 12.0545 45.1851 12.6977 42.4811C13.3146 39.8821 15.6905 35.3666 20.4947 30.4968C22.4768 28.4885 24.682 26.3489 27.3729 24.3012C27.6616 24.0912 27.806 23.7236 27.7404 23.3824C27.3335 21.0853 26.7428 19.3395 26.2834 18.5782C25.5614 17.3574 24.6032 16.5961 23.5269 16.3598C22.5161 16.1367 21.3873 16.3992 20.3766 17.0949C18.237 18.565 16.4387 20.954 15.6117 22.1616C15.323 22.5817 14.7717 22.6867 14.3385 22.4241L11.4638 20.6784C10.9913 20.3896 10.86 19.7858 11.1619 19.3264C12.1595 17.8431 14.4698 14.7453 17.3969 12.737C19.6152 11.2143 22.188 10.663 24.6426 11.2012C27.1366 11.7525 29.3287 13.4064 30.7857 15.861C31.2714 16.688 31.8095 18.0137 32.2821 19.707C32.4396 20.2977 33.0959 20.5733 33.6472 20.2977C34.7498 19.7201 35.918 19.182 37.1519 18.67C41.9167 16.7011 44.3483 15.8348 46.3435 15.2572C46.8554 15.0997 47.3805 15.4016 47.5248 15.9135L48.4174 19.1295C48.5618 19.6283 48.273 20.1533 47.7742 20.2977C45.8578 20.8621 43.6232 21.676 39.1471 23.5136C37.1913 24.3275 35.4455 25.22 33.8572 26.1783C33.5553 26.362 33.3978 26.6902 33.4109 27.0315C33.621 31.4025 33.0303 36.3642 30.7988 40.8272C28.3705 45.6839 25.3514 48.8998 21.8205 50.3699C20.731 50.8294 19.6152 51.0263 18.552 50.9738L18.5783 51ZM27.8585 33.0433C28.016 32.1244 26.9134 31.5338 26.244 32.177C25.5746 32.8201 24.892 33.5027 24.2357 34.1721C19.8909 38.5826 18.132 42.3235 17.8038 43.6887C17.6201 44.4631 17.7513 45.1588 18.1714 45.5132C18.6702 45.9333 19.4315 45.7101 19.8515 45.5395C22.1749 44.5681 24.3013 42.2054 26.139 38.5038C27.0053 36.7711 27.5435 34.9072 27.8585 33.0433Z" fill="#0054FF"/>
<path d="M47.0656 47.5864C46.5641 47.7068 46.0714 47.4205 45.9244 46.9315C45.1555 44.2365 43.3402 39.5364 40.6373 36.4188C38.9721 34.4922 37.7196 33.6903 36.8029 32.9746C36.4026 32.664 36.3229 32.0977 36.6076 31.6837L38.5053 28.9282C38.817 28.4754 39.4364 28.3706 39.8755 28.7083C40.9599 29.5589 42.5611 30.631 44.598 32.9727C48.3644 37.3079 50.3367 43.2456 51.0077 45.6103C51.1539 46.1386 50.8404 46.6701 50.3126 46.79L47.0659 47.5733L47.0656 47.5864Z" fill="#0054FF"/>
<path d="M86.0397 35.2707C82.368 35.2707 79.5254 34.8561 77.5118 34.0355C75.4983 33.2148 74.5 31.8951 74.5 30.093C74.5 28.291 75.5068 26.9797 77.5118 26.1675C79.5169 25.3553 82.368 24.9492 86.0397 24.9492C89.7115 24.9492 92.5541 25.3553 94.5676 26.1675C96.5812 26.9797 97.5795 28.291 97.5795 30.093C97.5795 31.8951 96.5727 33.2148 94.5676 34.0355C92.5626 34.8561 89.7115 35.2707 86.0397 35.2707ZM86.0397 31.8528C88.5693 31.8528 90.4221 31.692 91.5981 31.379C92.7741 31.066 93.3663 30.6345 93.3663 30.0846C93.3663 29.5347 92.7741 29.1116 91.5981 28.7902C90.4221 28.4687 88.5693 28.3164 86.0397 28.3164C83.5101 28.3164 81.6573 28.4771 80.4814 28.7902C79.3054 29.1032 78.7132 29.5347 78.7132 30.0846C78.7132 30.6345 79.2969 31.0575 80.4814 31.379C81.6573 31.692 83.5101 31.8528 86.0397 31.8528Z" fill="#0054FF"/>
<path d="M75.3125 10.0915V12.3504C75.3125 12.748 75.634 13.078 76.0401 13.078H91.7507C92.1229 13.078 92.4275 13.3487 92.4698 13.7125C92.5629 14.5416 92.6221 16.0898 92.0891 17.8664C91.9453 18.3402 92.2922 18.814 92.7828 18.814H95.4309C95.7439 18.814 96.0316 18.6109 96.1246 18.3064C96.5223 17.0373 97.3598 13.5687 96.1416 9.84616C96.04 9.55005 95.7608 9.35547 95.4478 9.35547H76.057C75.6594 9.35547 75.3294 9.67696 75.3294 10.083L75.3125 10.0915Z" fill="#0054FF"/>
<path d="M104.602 26.5791V28.8296C104.602 29.2356 104.932 29.5656 105.338 29.5656H121.032C121.404 29.5656 121.717 29.8363 121.76 30.2086C121.853 31.0377 121.912 32.5859 121.379 34.3541C121.235 34.8279 121.582 35.3101 122.073 35.3101H124.704C125.025 35.3101 125.304 35.107 125.397 34.8025C125.795 33.5334 126.633 30.0647 125.414 26.3507C125.313 26.0546 125.025 25.8516 124.712 25.8516H105.33C104.924 25.8516 104.594 26.1815 104.594 26.5876L104.602 26.5791Z" fill="#0054FF"/>
<path d="M83.9008 21.4883H86.5739C86.971 21.4883 87.293 21.1664 87.293 20.7692V16.4973C87.293 16.1002 86.971 15.7783 86.5739 15.7783H83.9008C83.5037 15.7783 83.1818 16.1002 83.1818 16.4973V20.7692C83.1818 21.1664 83.5037 21.4883 83.9008 21.4883Z" fill="#0054FF"/>
<path d="M73.6641 20.3449V22.6207C73.6641 23.0179 73.986 23.3398 74.3832 23.3398H97.9364C98.3336 23.3398 98.6555 23.0179 98.6555 22.6207V20.3449C98.6555 19.9478 98.3336 19.6258 97.9364 19.6258H74.3832C73.986 19.6258 73.6641 19.9478 73.6641 20.3449Z" fill="#0054FF"/>
<path d="M118.337 9.37109H102.871C102.474 9.37109 102.152 9.69305 102.152 10.0902V12.366C102.152 12.7632 102.474 13.0851 102.871 13.0851H118.337C118.734 13.0851 119.056 12.7632 119.056 12.366V10.0902C119.056 9.69305 118.734 9.37109 118.337 9.37109Z" fill="#0054FF"/>
<path d="M152.972 31.5781H130.459C130.076 31.5781 129.766 31.8887 129.766 32.2719V34.5984C129.766 34.9816 130.076 35.2922 130.459 35.2922H152.972C153.355 35.2922 153.666 34.9816 153.666 34.5984V32.2719C153.666 31.8887 153.355 31.5781 152.972 31.5781Z" fill="#0054FF"/>
<path d="M124.984 23.7619V10.0902C124.984 9.69305 124.662 9.37109 124.265 9.37109H121.989C121.592 9.37109 121.27 9.69305 121.27 10.0902V23.7619C121.27 24.1591 121.592 24.481 121.989 24.481H124.265C124.662 24.481 124.984 24.1591 124.984 23.7619Z" fill="#0054FF"/>
<path d="M109.849 14.0187C109.079 14.017 108.465 14.6345 108.413 15.4025C108.311 16.9018 107.982 17.9829 106.718 18.8126C106.211 19.151 104.95 19.7094 102.615 19.8109C102.234 19.8278 101.93 20.1493 101.93 20.5385V22.5604C101.93 22.975 102.277 23.3134 102.7 23.288C103.436 23.2457 104.645 23.1188 106.058 22.7719C106.075 22.7719 106.092 22.7635 106.109 22.755C106.27 22.7043 107.124 22.4335 107.776 22.1713C109.459 21.486 110.728 20.3608 111.422 18.821C111.94 17.6709 112.062 16.7616 112.122 15.4795C112.159 14.684 111.515 14.0226 110.719 14.0207L109.849 14.0187Z" fill="#0054FF"/>
<path d="M143.578 32.0264V25.6396C143.578 25.2519 143.264 24.9375 142.876 24.9375H140.567C140.179 24.9375 139.865 25.2519 139.865 25.6396V32.0264C139.865 32.4142 140.179 32.7285 140.567 32.7285H142.876C143.264 32.7285 143.578 32.4142 143.578 32.0264Z" fill="#0054FF"/>
<path d="M123.318 18.7812H126.66C127.057 18.7812 127.379 18.4593 127.379 18.0622V15.7867C127.379 15.3896 127.057 15.0676 126.66 15.0676H123.318C122.921 15.0676 122.599 15.3896 122.599 15.7867V18.0622C122.599 18.4593 122.921 18.7812 123.318 18.7812Z" fill="#0054FF"/>
<path d="M114.142 19.3492C114.001 19.276 113.855 19.1993 113.708 19.1174C113.263 18.8697 112.631 19.0651 112.416 19.5268C112.222 19.9244 111.985 20.2797 111.723 20.6096C111.461 20.9395 111.528 21.4133 111.867 21.6501C112.34 21.98 112.603 22.0731 113.119 22.3099C114.041 22.7244 114.565 22.8936 116.282 23.1982C117.035 23.3335 117.847 23.3673 118.406 23.3673C118.803 23.3673 119.133 23.0459 119.133 22.6483V21.0072C119.133 20.6096 118.812 20.2882 118.414 20.2882C117.788 20.2882 117.247 20.2712 116.731 20.1782C115.563 19.9667 114.785 19.6706 114.142 19.3492Z" fill="#0054FF"/>
<path d="M140.552 9.37109C140.163 9.37109 139.85 9.68412 139.85 10.0733V12.1291C139.85 12.7721 139.825 13.9734 139.757 14.6164C139.562 16.4185 138.987 18.5843 137.87 19.7602C136.754 20.9362 134.926 22.1799 132.346 22.0699H131.745C131.356 22.0699 131.043 22.3829 131.043 22.7721V24.9802C131.043 25.3694 131.356 25.6824 131.745 25.6824H132.295C132.295 25.6824 132.329 25.6824 132.346 25.6824C134.647 25.5216 135.078 25.4032 137.143 24.7264C137.49 24.6164 137.828 24.4641 138.141 24.2864C138.903 23.8465 139.131 23.7112 139.85 23.0682C141.204 21.8668 141.923 20.7839 142.625 19.2442C143.327 17.7044 143.573 14.9464 143.573 12.3914V10.0733C143.573 9.68412 143.26 9.37109 142.87 9.37109H140.552Z" fill="#0054FF"/>
<path d="M151.111 22.1492C148.734 22.1492 146.754 21.0832 145.485 20.2625C145.348 20.1739 145.221 20.0895 145.086 19.9926C144.54 19.5983 143.723 19.792 143.446 20.4064C143.218 20.914 142.964 21.3454 142.693 21.7515C142.499 22.0392 142.541 22.4114 142.778 22.6568C143.074 22.9529 143.387 23.2405 143.776 23.5366C144.25 23.9004 145.121 24.3573 145.409 24.4926C146.255 24.8818 147.042 25.1779 147.473 25.2964C149.022 25.7194 150.172 25.7617 150.917 25.7617H152.042C152.439 25.7617 152.761 25.4402 152.761 25.0426V22.8598C152.761 22.4622 152.439 22.1407 152.042 22.1407H151.111V22.1492Z" fill="#0054FF"/>
<path d="M82.0234 49.2188V50.1074H73.957V49.2188H77.4336V47.2949H74.8457V43.0371H81.0957V47.2949H78.5078V49.2188H82.0234ZM75.9102 43.9062V46.4453H80.0215V43.9062H75.9102ZM89.6895 45.5469V46.4062H83.6445V42.8418H89.5918V43.7109H84.7578V45.5469H89.6895ZM90.6562 47.3828V48.2617H87.1406V51.1621H86.0664V48.2617H82.5898V47.3828H90.6562ZM99.2988 46.3574V47.1777H91.2324V46.3574H99.2988ZM98.3223 47.7051V49.7168H93.2637V50.332H98.5859V51.084H92.1797V49.0137H97.248V48.4668H92.1699V47.7051H98.3223ZM98.3027 42.5488V44.541H93.332V45.1172H98.459V45.8594H92.2578V43.8379H97.2188V43.3008H92.2285V42.5488H98.3027ZM107.512 42.7441C108.85 42.7344 109.826 43.4961 109.826 44.5996C109.826 45.6836 108.85 46.4551 107.512 46.4453C106.184 46.4551 105.217 45.6836 105.217 44.5996C105.217 43.4961 106.184 42.7344 107.512 42.7441ZM107.512 43.623C106.789 43.6133 106.262 43.9941 106.271 44.5996C106.262 45.1953 106.789 45.5566 107.512 45.5566C108.264 45.5566 108.791 45.1953 108.791 44.5996C108.791 43.9941 108.264 43.6133 107.512 43.623ZM112.014 42.3633V51.1719H110.939V42.3633H112.014ZM104.641 47.0508C106.232 47.0508 108.459 47.0215 110.363 46.7383L110.441 47.5391C109.68 47.6855 108.889 47.7783 108.117 47.832V50.9082H107.023V47.9004C106.208 47.9346 105.441 47.9395 104.777 47.9492L104.641 47.0508ZM120.236 42.3633V45.1367H121.467V46.0352H120.236V48.9551H119.152V42.3633H120.236ZM118.518 43.3398V44.209H113.283V43.3398H115.363V42.3535H116.447V43.3398H118.518ZM115.9 44.5703C117.17 44.5703 118.049 45.2441 118.059 46.2598C118.049 47.2656 117.17 47.9297 115.9 47.9297C114.621 47.9297 113.732 47.2656 113.732 46.2598C113.732 45.2441 114.621 44.5703 115.9 44.5703ZM115.9 45.4102C115.227 45.4102 114.787 45.7227 114.787 46.2598C114.787 46.7871 115.227 47.0996 115.9 47.0898C116.574 47.0996 117.023 46.7871 117.023 46.2598C117.023 45.7227 116.574 45.4102 115.9 45.4102ZM120.588 50.127V51.0059H114.582V48.4375H115.666V50.127H120.588ZM129.045 42.8711V43.75H125.881V44.5703H128.791V45.4199H125.881V46.2891C127.531 46.2842 128.537 46.2549 129.699 46.0645L129.807 46.9141C128.537 47.1387 127.434 47.1582 125.529 47.1484H124.777V42.8711H129.045ZM131.643 42.3633V47.6074H130.549V42.3633H131.643ZM131.643 47.998V51.0742H125.783V47.998H131.643ZM126.857 48.8379V50.1953H130.578V48.8379H126.857ZM140.266 42.3535V46.9141H139.191V42.3535H140.266ZM140.285 47.3145V49.5703H135.51V50.2637H140.549V51.1035H134.445V48.7891H139.201V48.1543H134.426V47.3145H140.285ZM134.455 42.7246V43.8281H136.555V42.7246H137.639V46.6016H133.381V42.7246H134.455ZM134.455 45.7422H136.555V44.668H134.455V45.7422ZM148.928 42.3535V47.6855H147.834V42.3535H148.928ZM146.291 43.0273V43.9062H143.166V46.1523C144.909 46.1572 145.93 46.0889 147.072 45.8594L147.17 46.748C145.939 46.9824 144.836 47.0312 142.844 47.0312H142.092V43.0273H146.291ZM145.939 47.7441C147.785 47.7344 148.947 48.3789 148.947 49.4629C148.947 50.5469 147.785 51.1816 145.939 51.1816C144.064 51.1816 142.922 50.5469 142.922 49.4629C142.922 48.3789 144.064 47.7344 145.939 47.7441ZM145.939 48.5938C144.699 48.5938 144.016 48.8867 144.016 49.4629C144.016 50.0195 144.699 50.3223 145.939 50.3223C147.17 50.3223 147.873 50.0195 147.883 49.4629C147.873 48.8867 147.17 48.5938 145.939 48.5938ZM153.479 44.4727C153.479 46.1133 154.26 47.7246 155.666 48.3398L155.012 49.209C154.011 48.7207 153.308 47.7832 152.932 46.6309C152.546 47.8467 151.828 48.8574 150.812 49.375L150.129 48.4961C151.564 47.8223 152.365 46.123 152.375 44.4727V43.0664H153.479V44.4727ZM157.619 42.3535V51.1914H156.545V46.084H154.689V45.2051H156.545V42.3535H157.619ZM166.203 42.3535V51.1914H165.109V42.3535H166.203ZM160.412 43.0762V45.2832H162.551V43.0762H163.625V49.1113H159.328V43.0762H160.412ZM160.412 48.2227H162.551V46.1328H160.412V48.2227ZM172.062 43.5645C172.062 44.9316 173.4 46.2988 175.246 46.6211L174.758 47.5293C173.278 47.2168 172.067 46.3232 171.496 45.1367C170.91 46.3135 169.699 47.2119 168.225 47.5293L167.746 46.6211C169.572 46.2891 170.9 44.9219 170.91 43.5645V42.9102H172.062V43.5645ZM175.568 49.1602V50.0586H167.502V49.1602H175.568ZM177.863 49.6191L177.043 52.3535H176.115L176.623 49.6191H177.863ZM185.041 47.8711C186.955 47.8809 188.166 48.4863 188.176 49.5312C188.166 50.5566 186.955 51.1719 185.041 51.1719C183.137 51.1719 181.916 50.5566 181.916 49.5312C181.916 48.4863 183.137 47.8809 185.041 47.8711ZM185.041 48.6914C183.771 48.6914 183 48.9941 183.01 49.5312C183 50.0488 183.771 50.332 185.041 50.332C186.32 50.332 187.092 50.0488 187.102 49.5312C187.092 48.9941 186.32 48.6914 185.041 48.6914ZM188.117 42.7734V43.5059C188.117 44.1992 188.117 44.9414 187.873 45.8496L186.799 45.752C187.019 44.8926 187.033 44.2725 187.033 43.6328H182.004V42.7734H188.117ZM189.094 46.3574V47.2363H181.086V46.3574H184.191V44.7559H185.266V46.3574H189.094ZM192.873 43.8867C192.873 44.9707 193.576 46.0449 194.963 46.5039L194.416 47.3438C193.43 47.0166 192.727 46.3525 192.346 45.5273C191.95 46.4307 191.218 47.1484 190.188 47.5L189.611 46.6602C191.037 46.1914 191.779 45.0488 191.779 43.8867V43.7793H189.914V42.9102H194.709V43.7793H192.873V43.8867ZM196.672 42.3535V44.5605H197.902V45.4688H196.672V47.6758H195.588V42.3535H196.672ZM196.672 48.0859V51.1816H195.588V48.9551H190.793V48.0859H196.672ZM206.418 49.209V50.0879H198.352V49.209H201.809V47.168H202.883V49.209H206.418ZM202.912 43.5352C202.912 44.873 204.25 46.1914 206.105 46.4844L205.637 47.3828C204.143 47.0996 202.922 46.2451 202.336 45.0879C201.75 46.2402 200.539 47.1094 199.055 47.3828L198.586 46.4844C200.432 46.1914 201.75 44.8633 201.76 43.5352V42.8906H202.912V43.5352Z" fill="black"/>
</svg>
