<svg width="400" height="60" viewBox="0 0 400 60" fill="none" xmlns="http://www.w3.org/2000/svg">
<rect x="0.75" y="0.75" width="398.5" height="58.5" rx="3" fill="white"/>
<rect x="0.75" y="0.75" width="398.5" height="58.5" rx="3" stroke="#747775" stroke-width="1.5"/>
<path fill-rule="evenodd" clip-rule="evenodd" d="M53 30.341C53 29.2774 52.9026 28.2546 52.7217 27.2728H38.3061V33.0751H46.5436C46.1888 34.9501 45.1104 36.5387 43.4893 37.6024V41.366H48.436C51.3303 38.7546 53 34.9092 53 30.341Z" fill="#4285F4"/>
<path fill-rule="evenodd" clip-rule="evenodd" d="M38.3062 45C42.4388 45 45.9035 43.6569 48.436 41.366L43.4893 37.6024C42.1188 38.5024 40.3655 39.0341 38.3062 39.0341C34.3196 39.0341 30.9453 36.3954 29.7417 32.85H24.628V36.7363C27.1466 41.6386 32.3228 45 38.3062 45Z" fill="#34A853"/>
<path fill-rule="evenodd" clip-rule="evenodd" d="M29.7417 32.85C29.4355 31.95 29.2616 30.9887 29.2616 30.0001C29.2616 29.0114 29.4355 28.0501 29.7417 27.1501V23.2637H24.628C23.5914 25.2887 23 27.5796 23 30.0001C23 32.4205 23.5914 34.7113 24.628 36.7363L29.7417 32.85Z" fill="#FBBC05"/>
<path fill-rule="evenodd" clip-rule="evenodd" d="M38.3062 20.9659C40.5534 20.9659 42.571 21.7227 44.1573 23.2091L48.5474 18.9068C45.8966 16.4864 42.4319 15 38.3062 15C32.3228 15 27.1466 18.3614 24.628 23.2637L29.7417 27.1501C30.9453 23.6046 34.3196 20.9659 38.3062 20.9659Z" fill="#EA4335"/>
<rect width="294" height="53.75" transform="translate(68 3.125)" fill="white"/>
<path d="M93.4315 29.8696V34.4509C93.2612 34.6761 92.9948 34.9233 92.6323 35.1925C92.2752 35.4562 91.8001 35.6841 91.2068 35.8764C90.6135 36.0687 89.8747 36.1648 88.9903 36.1648C88.2377 36.1648 87.5483 36.0385 86.9221 35.7858C86.2959 35.5276 85.7548 35.1513 85.2989 34.6569C84.8485 34.1625 84.4996 33.561 84.2524 32.8524C84.0052 32.1383 83.8817 31.3253 83.8817 30.4134V29.5812C83.8817 28.6749 83.9943 27.8674 84.2195 27.1587C84.4502 26.4446 84.7798 25.8404 85.2083 25.346C85.6367 24.8516 86.1531 24.4781 86.7573 24.2254C87.3671 23.9672 88.0565 23.8381 88.8255 23.8381C89.8088 23.8381 90.6218 24.0029 91.2645 24.3325C91.9127 24.6566 92.4125 25.107 92.7641 25.6838C93.1157 26.2606 93.3381 26.9198 93.4315 27.6614H91.4045C91.3386 27.2439 91.2095 26.8704 91.0173 26.5408C90.8305 26.2112 90.5613 25.953 90.2098 25.7662C89.8637 25.574 89.4133 25.4778 88.8585 25.4778C88.3806 25.4778 87.9603 25.5685 87.5978 25.7497C87.2352 25.931 86.9331 26.1974 86.6914 26.549C86.4552 26.9006 86.2767 27.329 86.1558 27.8344C86.035 28.3398 85.9746 28.9166 85.9746 29.5648V30.4134C85.9746 31.0726 86.0432 31.6576 86.1805 32.1685C86.3234 32.6794 86.5266 33.1106 86.7903 33.4622C87.0595 33.8137 87.3863 34.0801 87.7708 34.2614C88.1553 34.4372 88.5893 34.5251 89.0727 34.5251C89.5451 34.5251 89.9324 34.4866 90.2345 34.4097C90.5366 34.3273 90.7756 34.2312 90.9514 34.1213C91.1326 34.006 91.2727 33.8961 91.3716 33.7917V31.4105H88.8749V29.8696H93.4315ZM95.2298 31.6412V31.4517C95.2298 30.809 95.3232 30.2129 95.5099 29.6636C95.6967 29.1088 95.9659 28.6282 96.3174 28.2217C96.6745 27.8097 97.1084 27.4911 97.6193 27.2659C98.1357 27.0351 98.7179 26.9198 99.3661 26.9198C100.02 26.9198 100.602 27.0351 101.113 27.2659C101.629 27.4911 102.066 27.8097 102.423 28.2217C102.78 28.6282 103.052 29.1088 103.239 29.6636C103.426 30.2129 103.519 30.809 103.519 31.4517V31.6412C103.519 32.2839 103.426 32.8799 103.239 33.4292C103.052 33.9785 102.78 34.4592 102.423 34.8712C102.066 35.2776 101.632 35.5963 101.121 35.827C100.61 36.0522 100.031 36.1648 99.3826 36.1648C98.7289 36.1648 98.1439 36.0522 97.6275 35.827C97.1167 35.5963 96.6827 35.2776 96.3257 34.8712C95.9686 34.4592 95.6967 33.9785 95.5099 33.4292C95.3232 32.8799 95.2298 32.2839 95.2298 31.6412ZM97.2156 31.4517V31.6412C97.2156 32.0422 97.2568 32.4212 97.3391 32.7783C97.4215 33.1353 97.5506 33.4484 97.7264 33.7176C97.9022 33.9868 98.1274 34.1982 98.4021 34.352C98.6767 34.5059 99.0036 34.5828 99.3826 34.5828C99.7507 34.5828 100.069 34.5059 100.338 34.352C100.613 34.1982 100.838 33.9868 101.014 33.7176C101.19 33.4484 101.319 33.1353 101.401 32.7783C101.489 32.4212 101.533 32.0422 101.533 31.6412V31.4517C101.533 31.0561 101.489 30.6826 101.401 30.331C101.319 29.974 101.187 29.6581 101.006 29.3835C100.83 29.1088 100.605 28.8946 100.33 28.7408C100.061 28.5815 99.7397 28.5018 99.3661 28.5018C98.9926 28.5018 98.6685 28.5815 98.3938 28.7408C98.1247 28.8946 97.9022 29.1088 97.7264 29.3835C97.5506 29.6581 97.4215 29.974 97.3391 30.331C97.2568 30.6826 97.2156 31.0561 97.2156 31.4517ZM104.889 31.6412V31.4517C104.889 30.809 104.982 30.2129 105.169 29.6636C105.356 29.1088 105.625 28.6282 105.976 28.2217C106.333 27.8097 106.767 27.4911 107.278 27.2659C107.795 27.0351 108.377 26.9198 109.025 26.9198C109.679 26.9198 110.261 27.0351 110.772 27.2659C111.288 27.4911 111.725 27.8097 112.082 28.2217C112.439 28.6282 112.711 29.1088 112.898 29.6636C113.085 30.2129 113.178 30.809 113.178 31.4517V31.6412C113.178 32.2839 113.085 32.8799 112.898 33.4292C112.711 33.9785 112.439 34.4592 112.082 34.8712C111.725 35.2776 111.291 35.5963 110.78 35.827C110.269 36.0522 109.69 36.1648 109.042 36.1648C108.388 36.1648 107.803 36.0522 107.287 35.827C106.776 35.5963 106.342 35.2776 105.985 34.8712C105.628 34.4592 105.356 33.9785 105.169 33.4292C104.982 32.8799 104.889 32.2839 104.889 31.6412ZM106.875 31.4517V31.6412C106.875 32.0422 106.916 32.4212 106.998 32.7783C107.081 33.1353 107.21 33.4484 107.385 33.7176C107.561 33.9868 107.786 34.1982 108.061 34.352C108.336 34.5059 108.663 34.5828 109.042 34.5828C109.41 34.5828 109.728 34.5059 109.997 34.352C110.272 34.1982 110.497 33.9868 110.673 33.7176C110.849 33.4484 110.978 33.1353 111.06 32.7783C111.148 32.4212 111.192 32.0422 111.192 31.6412V31.4517C111.192 31.0561 111.148 30.6826 111.06 30.331C110.978 29.974 110.846 29.6581 110.665 29.3835C110.489 29.1088 110.264 28.8946 109.989 28.7408C109.72 28.5815 109.399 28.5018 109.025 28.5018C108.652 28.5018 108.327 28.5815 108.053 28.7408C107.784 28.8946 107.561 29.1088 107.385 29.3835C107.21 29.6581 107.081 29.974 106.998 30.331C106.916 30.6826 106.875 31.0561 106.875 31.4517ZM120.637 27.0846H122.441V35.7528C122.441 36.5548 122.271 37.236 121.931 37.7963C121.59 38.3566 121.115 38.7823 120.505 39.0734C119.895 39.3701 119.189 39.5184 118.387 39.5184C118.047 39.5184 117.668 39.4689 117.25 39.3701C116.838 39.2712 116.437 39.1119 116.047 38.8922C115.663 38.6779 115.341 38.395 115.083 38.0435L116.014 36.8734C116.333 37.2524 116.685 37.5298 117.069 37.7056C117.454 37.8814 117.857 37.9693 118.28 37.9693C118.736 37.9693 119.124 37.8842 119.442 37.7139C119.766 37.5491 120.016 37.3046 120.192 36.9805C120.368 36.6564 120.456 36.2609 120.456 35.794V29.1033L120.637 27.0846ZM114.581 31.6412V31.4681C114.581 30.7925 114.663 30.1772 114.828 29.6224C114.993 29.0621 115.229 28.5815 115.536 28.1805C115.844 27.774 116.218 27.4636 116.657 27.2494C117.097 27.0297 117.594 26.9198 118.148 26.9198C118.725 26.9198 119.217 27.0242 119.623 27.2329C120.035 27.4416 120.379 27.741 120.653 28.131C120.928 28.5156 121.142 28.977 121.296 29.5153C121.455 30.0482 121.573 30.6414 121.65 31.2951V31.8472C121.579 32.4844 121.458 33.0666 121.288 33.594C121.118 34.1213 120.892 34.5773 120.612 34.9618C120.332 35.3463 119.986 35.6429 119.574 35.8517C119.167 36.0604 118.687 36.1648 118.132 36.1648C117.588 36.1648 117.097 36.0522 116.657 35.827C116.223 35.6017 115.85 35.2859 115.536 34.8794C115.229 34.4729 114.993 33.995 114.828 33.4457C114.663 32.8909 114.581 32.2894 114.581 31.6412ZM116.566 31.4681V31.6412C116.566 32.0477 116.605 32.4267 116.682 32.7783C116.764 33.1298 116.888 33.4402 117.053 33.7093C117.223 33.973 117.437 34.1818 117.695 34.3356C117.959 34.4839 118.269 34.558 118.626 34.558C119.093 34.558 119.475 34.4592 119.772 34.2614C120.074 34.0637 120.305 33.7972 120.464 33.4622C120.629 33.1216 120.744 32.7426 120.81 32.3251V30.8337C120.777 30.5096 120.708 30.2075 120.604 29.9273C120.505 29.6472 120.37 29.4027 120.2 29.194C120.03 28.9797 119.816 28.8149 119.557 28.6996C119.299 28.5787 118.994 28.5183 118.643 28.5183C118.286 28.5183 117.975 28.5952 117.712 28.749C117.448 28.9028 117.231 29.1143 117.061 29.3835C116.896 29.6526 116.772 29.9658 116.69 30.3228C116.608 30.6799 116.566 31.0616 116.566 31.4681ZM126.712 23.3437V36H124.718V23.3437H126.712ZM132.902 36.1648C132.242 36.1648 131.646 36.0577 131.114 35.8434C130.586 35.6237 130.136 35.3188 129.762 34.9288C129.394 34.5388 129.111 34.0801 128.914 33.5528C128.716 33.0254 128.617 32.4569 128.617 31.8472V31.5176C128.617 30.8199 128.719 30.1882 128.922 29.6224C129.125 29.0566 129.408 28.5732 129.77 28.1722C130.133 27.7657 130.562 27.4554 131.056 27.2411C131.55 27.0269 132.086 26.9198 132.663 26.9198C133.3 26.9198 133.857 27.0269 134.335 27.2411C134.813 27.4554 135.209 27.7575 135.522 28.1475C135.84 28.532 136.077 28.9907 136.23 29.5236C136.39 30.0564 136.469 30.6442 136.469 31.2869V32.1356H129.581V30.7101H134.508V30.5535C134.497 30.1965 134.426 29.8614 134.294 29.5483C134.168 29.2352 133.973 28.9825 133.709 28.7902C133.445 28.598 133.094 28.5018 132.654 28.5018C132.325 28.5018 132.031 28.5732 131.773 28.7161C131.52 28.8534 131.309 29.0539 131.138 29.3176C130.968 29.5812 130.836 29.8998 130.743 30.2734C130.655 30.6414 130.611 31.0561 130.611 31.5176V31.8472C130.611 32.2372 130.663 32.5997 130.768 32.9348C130.877 33.2644 131.037 33.5528 131.245 33.8C131.454 34.0472 131.707 34.2422 132.003 34.385C132.3 34.5223 132.638 34.591 133.017 34.591C133.495 34.591 133.921 34.4949 134.294 34.3026C134.668 34.1103 134.992 33.8384 135.266 33.4869L136.313 34.5004C136.121 34.7805 135.871 35.0497 135.563 35.3079C135.255 35.5605 134.879 35.7665 134.434 35.9258C133.995 36.0851 133.484 36.1648 132.902 36.1648ZM148.118 26.2969H151.51V27.4275H148.118V26.2969ZM148 30.1275H151.476V31.2581H148V30.1275ZM153.822 22.0612H155.172V37.3163H153.822V22.0612ZM150.767 22.4494H152.083V36.54H150.767V22.4494ZM147.358 23.985H148.708C148.708 27.9844 147.105 31.5787 143.005 34.0256L142.195 33.03C145.755 30.87 147.358 27.8325 147.358 24.2381V23.985ZM142.87 23.985H147.915V25.1325H142.87V23.985ZM165.953 26.01H169.396V27.1744H165.953V26.01ZM168.957 22.0612H170.358V31.1569H168.957V22.0612ZM165.346 31.6125C168.485 31.6125 170.425 32.6756 170.425 34.4644C170.425 36.27 168.485 37.2994 165.346 37.2994C162.19 37.2994 160.25 36.27 160.25 34.4644C160.25 32.6756 162.19 31.6125 165.346 31.6125ZM165.346 32.7094C163.051 32.7094 161.65 33.3506 161.65 34.4644C161.65 35.5612 163.051 36.2025 165.346 36.2025C167.641 36.2025 169.041 35.5612 169.041 34.4644C169.041 33.3506 167.641 32.7094 165.346 32.7094ZM161.701 23.5969H162.848V24.8287C162.848 27.6469 161.127 30.06 158.596 31.005L157.87 29.8912C160.131 29.0644 161.701 27.0225 161.701 24.8287V23.5969ZM161.971 23.5969H163.101V24.8287C163.101 26.8031 164.586 28.6931 166.797 29.4694L166.088 30.5831C163.608 29.6887 161.971 27.3937 161.971 24.8287V23.5969ZM158.292 23.175H166.443V24.3225H158.292V23.175ZM180.313 23.0231C183.485 23.0231 185.848 24.7106 185.848 27.2419C185.848 29.79 183.485 31.4606 180.313 31.4606C177.14 31.4606 174.761 29.79 174.761 27.2419C174.761 24.7106 177.14 23.0231 180.313 23.0231ZM180.313 24.1706C177.9 24.1706 176.111 25.4025 176.111 27.2419C176.111 29.0644 177.9 30.3131 180.313 30.3131C182.726 30.3131 184.515 29.0644 184.515 27.2419C184.515 25.4025 182.726 24.1706 180.313 24.1706ZM173.428 34.1269H187.248V35.3081H173.428V34.1269ZM189.036 34.2787H202.856V35.4431H189.036V34.2787ZM195.212 31.005H196.613V34.7681H195.212V31.005ZM190.706 23.1919H201.152V27.8156H192.141V30.87H190.757V26.685H199.768V24.3225H190.706V23.1919ZM190.757 30.2794H201.506V31.4269H190.757V30.2794ZM211.325 29.1033H212.511C212.973 29.1033 213.355 29.0237 213.657 28.8644C213.964 28.7051 214.192 28.4853 214.341 28.2052C214.489 27.925 214.563 27.6037 214.563 27.2411C214.563 26.8621 214.494 26.538 214.357 26.2689C214.225 25.9942 214.022 25.7827 213.747 25.6344C213.478 25.4861 213.135 25.4119 212.717 25.4119C212.366 25.4119 212.047 25.4833 211.762 25.6262C211.481 25.7635 211.259 25.9612 211.094 26.2194C210.929 26.4721 210.847 26.7742 210.847 27.1258H208.853C208.853 26.4886 209.021 25.9228 209.356 25.4284C209.691 24.934 210.147 24.5467 210.723 24.2666C211.306 23.9809 211.959 23.8381 212.684 23.8381C213.459 23.8381 214.135 23.9672 214.711 24.2254C215.294 24.4781 215.747 24.8571 216.071 25.3625C216.395 25.8678 216.557 26.4941 216.557 27.2411C216.557 27.5817 216.478 27.9278 216.318 28.2794C216.159 28.6309 215.923 28.9523 215.61 29.2434C215.296 29.529 214.906 29.7625 214.44 29.9438C213.973 30.1196 213.432 30.2075 212.816 30.2075H211.325V29.1033ZM211.325 30.6524V29.5648H212.816C213.519 29.5648 214.118 29.6472 214.613 29.8119C215.112 29.9767 215.519 30.2047 215.832 30.4958C216.145 30.7815 216.373 31.1083 216.516 31.4764C216.664 31.8444 216.738 32.2344 216.738 32.6464C216.738 33.2067 216.637 33.7066 216.434 34.1461C216.236 34.58 215.953 34.9481 215.585 35.2502C215.217 35.5523 214.786 35.7803 214.291 35.9341C213.802 36.0879 213.27 36.1648 212.693 36.1648C212.176 36.1648 211.682 36.0934 211.21 35.9506C210.737 35.8077 210.314 35.5963 209.941 35.3161C209.567 35.0305 209.27 34.6761 209.051 34.2532C208.837 33.8247 208.729 33.3303 208.729 32.77H210.715C210.715 33.1271 210.798 33.4429 210.962 33.7176C211.133 33.9868 211.369 34.1982 211.671 34.352C211.979 34.5059 212.33 34.5828 212.726 34.5828C213.143 34.5828 213.503 34.5086 213.805 34.3603C214.107 34.212 214.338 33.9922 214.497 33.7011C214.662 33.41 214.744 33.0584 214.744 32.6464C214.744 32.1795 214.654 31.8005 214.473 31.5093C214.291 31.2182 214.033 31.004 213.698 30.8666C213.363 30.7238 212.967 30.6524 212.511 30.6524H211.325ZM218.606 34.2281H232.427V35.3925H218.606V34.2281ZM224.799 30.7856H226.2V34.8525H224.799V30.7856ZM224.799 25.2506H226.031V25.5881C226.031 28.71 223.196 30.735 219.888 31.3087L219.348 30.195C222.335 29.7225 224.799 27.9506 224.799 25.5881V25.2506ZM224.985 25.2506H226.2V25.5881C226.2 27.9506 228.663 29.7225 231.65 30.195L231.11 31.3087C227.803 30.735 224.985 28.71 224.985 25.5881V25.2506ZM219.872 24.4575H231.11V25.6219H219.872V24.4575ZM224.799 22.3819H226.2V24.8794H224.799V22.3819ZM234.838 23.4281H241.841V30.4987H234.838V23.4281ZM240.475 24.5587H236.205V29.3681H240.475V24.5587ZM244.643 22.0444H246.043V33.2325H244.643V22.0444ZM245.605 26.7019H248.305V27.8662H245.605V26.7019ZM236.543 35.8312H246.735V36.9788H236.543V35.8312ZM236.543 32.1694H237.943V36.3206H236.543V32.1694ZM255.998 27.9844H258.884V29.1487H255.998V27.9844ZM261.432 22.0612H262.782V37.3163H261.432V22.0612ZM258.411 22.3819H259.745V36.5569H258.411V22.3819ZM253.248 23.3269C255.222 23.3269 256.505 25.3687 256.505 28.6425C256.505 31.9162 255.222 33.9581 253.248 33.9581C251.273 33.9581 250.008 31.9162 250.008 28.6425C250.008 25.3687 251.273 23.3269 253.248 23.3269ZM253.248 24.6262C252.05 24.6262 251.29 26.1787 251.29 28.6425C251.29 31.1062 252.05 32.6587 253.248 32.6587C254.463 32.6587 255.222 31.1062 255.222 28.6425C255.222 26.1787 254.463 24.6262 253.248 24.6262ZM269.717 34.2787H283.537V35.4431H269.717V34.2787ZM275.893 31.005H277.294V34.7681H275.893V31.005ZM271.387 23.1919H281.833V27.8156H272.822V30.87H271.438V26.685H280.449V24.3225H271.387V23.1919ZM271.438 30.2794H282.187V31.4269H271.438V30.2794ZM286.81 23.6812H296.631V24.8119H286.81V23.6812ZM285.325 33.9244H299.112V35.0887H285.325V33.9244ZM295.889 23.6812H297.255V25.2C297.255 27.1575 297.255 29.3344 296.682 32.625L295.281 32.49C295.889 29.3681 295.889 27.09 295.889 25.2V23.6812ZM312.02 22.0781H313.437V33.2156H312.02V22.0781ZM303.633 35.8312H313.893V36.9788H303.633V35.8312ZM303.633 32.0681H305.017V36.2194H303.633V32.0681ZM305.253 23.1244C307.531 23.1244 309.219 24.6769 309.219 26.8875C309.219 29.0812 307.531 30.6506 305.253 30.6506C302.975 30.6506 301.27 29.0812 301.27 26.8875C301.27 24.6769 302.975 23.1244 305.253 23.1244ZM305.253 24.3394C303.768 24.3394 302.637 25.3856 302.637 26.8875C302.637 28.3725 303.768 29.4187 305.253 29.4187C306.738 29.4187 307.869 28.3725 307.869 26.8875C307.869 25.3856 306.738 24.3394 305.253 24.3394ZM326.868 22.0612H328.269V37.3163H326.868V22.0612ZM327.932 28.3219H330.767V29.5031H327.932V28.3219ZM316.457 24.4912H325.451V25.6387H316.457V24.4912ZM321.013 26.9044C323.173 26.9044 324.725 28.3556 324.725 30.4144C324.725 32.4731 323.173 33.9244 321.013 33.9244C318.87 33.9244 317.3 32.4731 317.3 30.4144C317.3 28.3556 318.87 26.9044 321.013 26.9044ZM321.013 28.0687C319.629 28.0687 318.633 29.0306 318.633 30.4144C318.633 31.7812 319.629 32.76 321.013 32.76C322.397 32.76 323.392 31.7812 323.392 30.4144C323.392 29.0306 322.397 28.0687 321.013 28.0687ZM320.287 22.2469H321.688V25.0144H320.287V22.2469ZM343.253 22.0612H344.653V37.3163H343.253V22.0612ZM338.781 23.6981H340.165C340.165 28.1194 338.173 31.9837 333.077 34.4812L332.335 33.3506C336.739 31.2244 338.781 27.9844 338.781 23.9344V23.6981ZM333.027 23.6981H339.388V24.8456H333.027V23.6981Z" fill="#1F1F1F"/>
</svg>
