<svg width="265" height="46" viewBox="0 0 265 46" fill="none" xmlns="http://www.w3.org/2000/svg">
<rect width="265" height="46" rx="20" fill="#D2D2D7"/>
<path d="M46.7969 27.7344V29.8242H30.5273V27.7344H37.3633V24.5312H31.875V22.5781H34.2578V17.5H31.7969V15.5078H45.4297V17.5H42.9297V22.5781H45.3516V24.5312H39.8438V27.7344H46.7969ZM36.7578 22.5781H40.4688V17.5H36.7578V22.5781ZM62.3047 23.2031V25.1758H49.7266V15.332H62.168V17.3438H52.2656V19.2188H61.7578V21.1719H52.2656V23.2031H62.3047ZM64.082 27.6953V29.7266H47.8125V27.6953H64.082ZM79.8633 14.4531V16.2891H77.5391V18.6328H79.7461V20.4883H74.4336V21.6016H81.3086V23.5352H65.0977V21.6016H71.9336V20.4883H66.6406V18.6328H68.8281V16.2891H66.5234V14.4531H79.8633ZM79.3359 24.4727V28.8281H69.4336V29.8438H79.8047V31.6797H66.9922V27.1484H76.875V26.25H66.9727V24.4727H79.3359ZM71.3281 18.6328H75.0391V16.2891H71.3281V18.6328ZM97.2852 14.0234V31.8359H94.8047V14.0234H97.2852ZM91.7773 15.5078V22.3633H85.918V25.625C88.623 25.6152 90.9277 25.459 93.5352 25.0391L93.75 27.0508C90.8203 27.5586 88.1836 27.6758 84.9414 27.6758H83.3398V20.3906H89.2383V17.5195H83.3203V15.5078H91.7773ZM107.773 14.9414C111.602 14.9414 114.453 16.875 114.473 19.8047C114.453 22.4805 112.197 24.2871 109.004 24.6484V27.6758H115.938V29.7266H99.668V27.6758H106.523V24.6289C103.34 24.2871 101.094 22.4707 101.094 19.8047C101.094 16.875 103.945 14.9414 107.773 14.9414ZM107.773 16.9336C105.293 16.9336 103.555 18.0273 103.555 19.8047C103.555 21.6797 105.293 22.7344 107.773 22.7344C110.273 22.7344 111.992 21.6797 112.012 19.8047C111.992 18.0273 110.273 16.9336 107.773 16.9336ZM137.832 27.6953V29.7266H121.562V27.6953H128.418V24.4141H123.281V15.1562H125.781V17.9102H133.535V15.1562H136.016V24.4141H130.898V27.6953H137.832ZM125.781 22.4219H133.535V19.9023H125.781V22.4219ZM153.828 14.0234V31.8359H151.348V22.4609H148.477V20.4297H151.348V14.0234H153.828ZM147.48 15.5078V22.168H141.953V25.6445C144.404 25.625 146.484 25.5371 148.77 25.1367L148.965 27.168C146.328 27.5977 143.906 27.6953 140.938 27.6953H139.473V20.1953H145.059V17.5195H139.434V15.5078H147.48ZM174.766 14.0234V20.8398H177.285V22.8906H174.766V31.7578H172.266V14.0234H174.766ZM170.02 15.8398C170 21.1523 167.93 25.7617 161.953 28.6914L160.547 26.7773C164.756 24.668 167.012 21.8359 167.48 17.8711H161.562V15.8398H170.02ZM192.969 14.0234V31.7969H190.449V14.0234H192.969ZM187.637 15.8789C187.637 21.2695 185.742 25.7422 179.395 28.75L178.086 26.7578C182.676 24.5898 184.697 21.7773 185.098 17.832H179.043V15.8789H187.637Z" fill="#383838"/>
<path d="M221.105 17.7891H216.244C215.005 17.7891 214 18.7936 214 20.0328V29.7558C214 30.995 215.005 31.9996 216.244 31.9996H225.967C227.206 31.9996 228.211 30.995 228.211 29.7558V24.8943" stroke="#383838" stroke-width="2" stroke-linecap="round" stroke-linejoin="round"/>
<path d="M220.422 24.164C220.031 24.5545 220.031 25.1876 220.422 25.5782C220.812 25.9687 221.445 25.9687 221.836 25.5782L220.422 24.164ZM233 14.0014C233 13.4491 232.552 13.0014 232 13.0013L223 13.001C222.447 13.0009 222 13.4486 222 14.0009C222 14.5532 222.447 15.0009 223 15.001L231 15.0013L230.999 23.0013C230.999 23.5536 231.447 24.0013 231.999 24.0013C232.551 24.0014 232.999 23.5537 232.999 23.0014L233 14.0014ZM221.836 25.5782L232.707 14.7085L231.293 13.2942L220.422 24.164L221.836 25.5782Z" fill="#383838"/>
</svg>
