<svg width="400" height="60" viewBox="0 0 400 60" fill="none" xmlns="http://www.w3.org/2000/svg">
<rect width="400" height="60" rx="8" fill="#FEE500"/>
<path fill-rule="evenodd" clip-rule="evenodd" d="M30.668 18.8008C24.0402 18.8008 18.668 22.9514 18.668 28.0705C18.668 31.2541 20.7458 34.0607 23.91 35.7301L22.5787 40.5934C22.461 41.0232 22.9525 41.3657 23.3299 41.1167L29.1658 37.2651C29.6582 37.3126 30.1587 37.3403 30.668 37.3403C37.2953 37.3403 42.6679 33.1899 42.6679 28.0705C42.6679 22.9514 37.2953 18.8008 30.668 18.8008Z" fill="black"/>
<path d="M103.096 22.84C103.096 28.16 101.636 32.72 95.1359 35.96L93.9359 34.32C96.9959 32.82 98.8359 31.04 99.8559 28.94L94.3359 29.48L94.0559 27.6L100.496 27.18C100.716 26.38 100.856 25.5 100.916 24.6H94.9759V22.84H103.096ZM105.576 38.68V21.08H107.736V28H110.376V29.76H107.736V38.68H105.576ZM120.381 22.84C120.381 28.16 118.921 32.72 112.421 35.96L111.221 34.32C114.281 32.82 116.121 31.04 117.141 28.94L111.621 29.48L111.341 27.6L117.781 27.18C118.001 26.38 118.141 25.5 118.201 24.6H112.261V22.84H120.381ZM122.861 38.68V21.08H125.021V28H127.661V29.76H125.021V38.68H122.861ZM136.546 22.08C140.306 22.08 143.106 23.98 143.106 26.84C143.106 29.5 140.806 31.26 137.586 31.58V34.8H144.626V36.6H128.506V34.8H135.466V31.58C132.246 31.24 129.966 29.5 129.986 26.84C129.966 23.98 132.766 22.08 136.546 22.08ZM132.106 26.84C132.086 28.76 133.946 29.88 136.546 29.88C139.126 29.88 140.966 28.76 140.986 26.84C140.966 25 139.126 23.82 136.546 23.84C133.946 23.82 132.086 25 132.106 26.84ZM161.911 34.88V36.68H145.791V34.88H152.751V32H147.711V26.24H157.871V24.04H147.671V22.28H159.991V27.96H149.871V30.24H160.391V32H154.871V34.88H161.911ZM173.562 37.2C170.542 37.2 168.382 35.56 168.322 33.16H170.882C170.942 34.3 172.082 35.06 173.562 35.04C175.102 35.06 176.222 34.2 176.242 32.96C176.222 31.66 175.142 30.76 173.282 30.76H172.042V28.8H173.282C174.802 28.8 175.842 27.96 175.842 26.72C175.842 25.54 174.942 24.74 173.562 24.72C172.242 24.74 171.102 25.48 171.042 26.68H168.602C168.662 24.3 170.822 22.66 173.602 22.68C176.462 22.66 178.322 24.42 178.282 26.6C178.322 28.18 177.262 29.32 175.722 29.64V29.76C177.722 30.02 178.842 31.3 178.842 33.08C178.842 35.46 176.602 37.2 173.562 37.2ZM196.599 34.88V36.64H180.479V34.88H187.439V31.2H189.599V34.88H196.599ZM181.119 30.12C184.959 29.62 187.239 27.6 187.399 25.4H181.879V23.64H187.439V21.36H189.599V23.64H195.159V25.4H189.639C189.779 27.6 192.079 29.62 195.919 30.12L195.119 31.84C192.039 31.4 189.699 30.04 188.519 28.1C187.359 30.04 185.019 31.4 181.959 31.84L181.119 30.12ZM206.724 22.6V30.96H198.364V22.6H206.724ZM200.364 38.4V32.72H202.524V36.64H212.364V38.4H200.364ZM200.484 29.24H204.564V24.32H200.484V29.24ZM209.484 33.96V21.08H211.684V26.28H214.164V28.08H211.684V33.96H209.484ZM230.249 21.08V38.72H228.169V21.08H230.249ZM215.209 28.72C215.209 24.84 216.709 22.42 219.009 22.44C221.169 22.42 222.609 24.42 222.849 27.72H224.569V21.4H226.649V37.88H224.569V29.48H222.869C222.689 32.94 221.209 35.04 219.009 35.04C216.709 35.04 215.209 32.62 215.209 28.72ZM217.209 28.72C217.209 31.48 217.889 32.96 219.009 32.96C220.189 32.96 220.889 31.48 220.889 28.72C220.889 25.96 220.189 24.46 219.009 24.48C217.889 24.46 217.209 25.96 217.209 28.72ZM253.22 34.88V36.68H237.1V34.88H244.06V32H239.02V26.24H249.18V24.04H238.98V22.28H251.3V27.96H241.18V30.24H251.7V32H246.18V34.88H253.22ZM268.425 22.8V24.8C268.405 27.16 268.405 29.58 267.785 33.32L265.585 33.12C266.245 29.64 266.245 27.08 266.265 24.8V24.56H256.065V22.8H268.425ZM254.385 36.32V34.52H270.465V36.32H254.385ZM286.35 21.12V33.84H284.19V21.12H286.35ZM271.99 26.68C271.97 24.1 274.05 22.26 276.75 22.28C279.41 22.26 281.49 24.1 281.47 26.68C281.49 29.28 279.41 31.1 276.75 31.08C274.05 31.1 271.97 29.28 271.99 26.68ZM274.11 26.68C274.09 28.24 275.23 29.2 276.75 29.2C278.21 29.2 279.35 28.24 279.35 26.68C279.35 25.14 278.21 24.16 276.75 24.16C275.23 24.16 274.09 25.14 274.11 26.68ZM274.67 38.4V32.56H276.87V36.64H286.83V38.4H274.67ZM302.755 21.08V28.12H305.475V29.92H302.755V38.72H300.635V21.08H302.755ZM288.835 25.56V23.8H293.035V21.32H295.195V23.8H299.275V25.56H288.835ZM289.675 30.84C289.655 28.4 291.535 26.68 294.115 26.68C296.655 26.68 298.535 28.4 298.555 30.84C298.535 33.28 296.655 34.98 294.115 35C291.535 34.98 289.655 33.28 289.675 30.84ZM291.755 30.84C291.735 32.28 292.735 33.2 294.115 33.2C295.475 33.2 296.455 32.28 296.475 30.84C296.455 29.4 295.475 28.46 294.115 28.48C292.735 28.46 291.735 29.4 291.755 30.84ZM320.961 21.08V38.72H318.761V21.08H320.961ZM306.361 33.88C310.961 31.68 313.101 28.7 313.501 24.68H307.241V22.96H315.721C315.701 28.22 313.661 32.68 307.481 35.6L306.361 33.88Z" fill="black" fill-opacity="0.85"/>
</svg>