<svg width="433" height="81" viewBox="0 0 433 81" fill="none" xmlns="http://www.w3.org/2000/svg">
<mask id="path-1-inside-1_6008_10215" fill="white">
<path fill-rule="evenodd" clip-rule="evenodd" d="M80.2471 13.1181C80.8857 14.737 82.3637 15.9509 84.104 15.9509H400.6C418.356 15.9509 432.75 30.3448 432.75 48.1005C432.75 65.8562 418.356 80.25 400.6 80.25H32.8995C15.1438 80.25 0.75 65.8562 0.75 48.1005C0.75 30.3448 15.1438 15.9509 32.8995 15.9509H38.9204C40.6607 15.9509 42.1387 14.737 42.7773 13.1181C45.7517 5.57684 53.019 0.25 61.5122 0.25C70.0054 0.25 77.2727 5.57684 80.2471 13.1181Z"/>
</mask>
<path fill-rule="evenodd" clip-rule="evenodd" d="M80.2471 13.1181C80.8857 14.737 82.3637 15.9509 84.104 15.9509H400.6C418.356 15.9509 432.75 30.3448 432.75 48.1005C432.75 65.8562 418.356 80.25 400.6 80.25H32.8995C15.1438 80.25 0.75 65.8562 0.75 48.1005C0.75 30.3448 15.1438 15.9509 32.8995 15.9509H38.9204C40.6607 15.9509 42.1387 14.737 42.7773 13.1181C45.7517 5.57684 53.019 0.25 61.5122 0.25C70.0054 0.25 77.2727 5.57684 80.2471 13.1181Z" fill="white" fill-opacity="0.49"/>
<path d="M42.7773 13.1181L44.1726 13.6684L42.7773 13.1181ZM80.2471 13.1181L81.6425 12.5677L80.2471 13.1181ZM84.104 17.4509H400.6V14.4509H84.104V17.4509ZM400.6 17.4509C417.528 17.4509 431.25 31.1732 431.25 48.1005H434.25C434.25 29.5163 419.185 14.4509 400.6 14.4509V17.4509ZM431.25 48.1005C431.25 65.0277 417.528 78.75 400.6 78.75V81.75C419.185 81.75 434.25 66.6846 434.25 48.1005H431.25ZM400.6 78.75H32.8995V81.75H400.6V78.75ZM32.8995 78.75C15.9723 78.75 2.25 65.0277 2.25 48.1005H-0.75C-0.75 66.6846 14.3154 81.75 32.8995 81.75V78.75ZM2.25 48.1005C2.25 31.1732 15.9723 17.4509 32.8995 17.4509V14.4509C14.3154 14.4509 -0.75 29.5163 -0.75 48.1005H2.25ZM32.8995 17.4509H38.9204V14.4509H32.8995V17.4509ZM44.1726 13.6684C46.9327 6.6707 53.6661 1.75 61.5122 1.75V-1.25C52.3718 -1.25 44.5707 4.48297 41.3819 12.5677L44.1726 13.6684ZM61.5122 1.75C69.3583 1.75 76.0917 6.6707 78.8518 13.6684L81.6425 12.5677C78.4537 4.48297 70.6526 -1.25 61.5122 -1.25V1.75ZM38.9204 17.4509C41.3963 17.4509 43.3554 15.7404 44.1726 13.6684L41.3819 12.5677C40.922 13.7336 39.9251 14.4509 38.9204 14.4509V17.4509ZM84.104 14.4509C83.0993 14.4509 82.1024 13.7336 81.6425 12.5677L78.8518 13.6684C79.669 15.7404 81.6281 17.4509 84.104 17.4509V14.4509Z" fill="white" mask="url(#path-1-inside-1_6008_10215)"/>
</svg>
