<svg width="11" height="11" viewBox="0 0 11 11" fill="none" xmlns="http://www.w3.org/2000/svg">
<path d="M5.73119 7.7974L4.7725 8.48609C4.3417 8.79556 3.80561 8.92123 3.28216 8.83543C2.75871 8.74964 2.29078 8.45942 1.98131 8.02862C1.67184 7.59783 1.54618 7.06174 1.63197 6.53829C1.71776 6.01484 2.00798 5.54691 2.43878 5.23744L3.37632 4.56394M5.29134 3.18826L6.22888 2.51477C6.65968 2.2053 7.19577 2.07964 7.71922 2.16543C8.24267 2.25122 8.7106 2.54144 9.02007 2.97224C9.32954 3.40304 9.4552 3.93913 9.36941 4.46258C9.28361 4.98602 8.9934 5.45395 8.5626 5.76342L7.60391 6.45211M4.02983 6.55705L7.00539 4.41951" stroke="black" stroke-linecap="round" stroke-linejoin="round"/>
</svg>
