<svg width="52" height="53" viewBox="0 0 52 53" fill="none" xmlns="http://www.w3.org/2000/svg">
<rect width="52" height="53" fill="#484848"/>
<path d="M-41819 -4438C-41819 -4439.1 -41818.1 -4440 -41817 -4440H29360C29361.1 -4440 29362 -4439.1 29362 -4438V15131C29362 15132.1 29361.1 15133 29360 15133H-41817C-41818.1 15133 -41819 15132.1 -41819 15131V-4438Z" fill="#8E8E8E"/>
<path d="M-41817 -4439H29360V-4441H-41817V-4439ZM29361 -4438V15131H29363V-4438H29361ZM29360 15132H-41817V15134H29360V15132ZM-41818 15131V-4438H-41820V15131H-41818ZM-41817 15132C-41817.6 15132 -41818 15131.6 -41818 15131H-41820C-41820 15132.7 -41818.7 15134 -41817 15134V15132ZM29361 15131C29361 15131.6 29360.6 15132 29360 15132V15134C29361.7 15134 29363 15132.7 29363 15131H29361ZM29360 -4439C29360.6 -4439 29361 -4438.55 29361 -4438H29363C29363 -4439.66 29361.7 -4441 29360 -4441V-4439ZM-41817 -4441C-41818.7 -4441 -41820 -4439.66 -41820 -4438H-41818C-41818 -4438.55 -41817.6 -4439 -41817 -4439V-4441Z" fill="white" fill-opacity="0.1"/>
<g clip-path="url(#clip0_5260_17063)">
<rect width="1920" height="2566" transform="translate(-409 -1697)" fill="white"/>
<ellipse cx="25.8916" cy="26.501" rx="25.8916" ry="25.8916" fill="black"/>
<path d="M20.7828 25.3394L18.3819 27.544C17.4852 28.3673 16.9696 29.4877 16.979 30.6651C16.9884 31.8425 17.4928 32.9696 18.432 33.8054C19.3422 34.6679 20.5699 35.131 21.852 35.1396C23.1632 35.1485 24.3544 34.7017 25.2511 33.8783L27.652 31.6737M30.7187 28.9116L33.1196 26.7069C34.0163 25.8836 34.5319 24.7633 34.5225 23.5859C34.5131 22.4084 34.0087 21.2813 33.0695 20.4455C32.1596 19.6099 30.932 19.1468 29.6498 19.1381C28.3675 19.1295 27.1473 19.5761 26.2506 20.3995L23.8497 22.6041M22.1099 30.4097L29.3126 23.7958" stroke="white" stroke-width="2.15036" stroke-linecap="round" stroke-linejoin="round"/>
</g>
<defs>
<clipPath id="clip0_5260_17063">
<rect width="1920" height="2566" fill="white" transform="translate(-409 -1697)"/>
</clipPath>
</defs>
</svg>
