<svg width="120" height="30" viewBox="0 0 348 81" fill="none" xmlns="http://www.w3.org/2000/svg">
<path d="M142.082 80.6309C130.903 80.6309 122.249 79.3688 116.119 76.8703C109.989 74.3718 106.949 70.3537 106.949 64.8674C106.949 59.3811 110.014 55.3888 116.119 52.9161C122.223 50.4434 130.903 49.207 142.082 49.207C153.261 49.207 161.915 50.4434 168.045 52.9161C174.176 55.3888 177.215 59.3811 177.215 64.8674C177.215 70.3537 174.15 74.3718 168.045 76.8703C161.941 79.3688 153.261 80.6309 142.082 80.6309ZM142.082 70.2249C149.784 70.2249 155.424 69.7355 159.005 68.7825C162.585 67.8295 164.388 66.5159 164.388 64.8417C164.388 63.1675 162.585 61.8796 159.005 60.9008C155.424 59.922 149.784 59.4584 142.082 59.4584C134.381 59.4584 128.74 59.9478 125.16 60.9008C121.579 61.8538 119.776 63.1675 119.776 64.8417C119.776 66.5159 121.554 67.8038 125.16 68.7825C128.74 69.7355 134.381 70.2249 142.082 70.2249Z" fill="#0054FF"/>
<path d="M109.422 3.97525V10.8524C109.422 12.063 110.401 13.0676 111.637 13.0676H159.468C160.602 13.0676 161.529 13.8918 161.658 14.9993C161.941 17.5236 162.121 22.2371 160.498 27.6461C160.061 29.0886 161.117 30.531 162.611 30.531H170.673C171.626 30.531 172.501 29.9128 172.785 28.9855C173.995 25.1219 176.545 14.5615 172.836 3.22829C172.527 2.32679 171.677 1.73438 170.724 1.73438H111.689C110.478 1.73438 109.473 2.71315 109.473 3.9495L109.422 3.97525Z" fill="#0054FF"/>
<path d="M198.592 54.1761V61.0275C198.592 62.2638 199.597 63.2684 200.833 63.2684H248.613C249.746 63.2684 250.699 64.0926 250.828 65.2259C251.111 67.7501 251.291 72.4637 249.669 77.847C249.231 79.2894 250.287 80.7575 251.781 80.7575H259.791C260.77 80.7575 261.62 80.1393 261.903 79.2121C263.114 75.3485 265.664 64.788 261.955 53.4806C261.646 52.5791 260.77 51.9609 259.817 51.9609H200.807C199.571 51.9609 198.566 52.9655 198.566 54.2018L198.592 54.1761Z" fill="#0054FF"/>
<path d="M135.562 38.668H143.701C144.91 38.668 145.891 37.6878 145.891 36.4786V23.4712C145.891 22.262 144.91 21.2818 143.701 21.2818H135.562C134.353 21.2818 133.373 22.262 133.373 23.4712V36.4786C133.373 37.6878 134.353 38.668 135.562 38.668Z" fill="#0054FF"/>
<path d="M104.402 35.1866V42.1153C104.402 43.3245 105.383 44.3047 106.592 44.3047L178.3 44.3047C179.509 44.3047 180.489 43.3245 180.489 42.1153V35.1866C180.489 33.9775 179.509 32.9973 178.3 32.9973L106.592 32.9973C105.383 32.9973 104.402 33.9775 104.402 35.1866Z" fill="#0054FF"/>
<path d="M240.406 1.78516H193.322C192.113 1.78516 191.133 2.76537 191.133 3.97452V10.9032C191.133 12.1124 192.113 13.0926 193.322 13.0926H240.406C241.616 13.0926 242.596 12.1124 242.596 10.9032V3.97452C242.596 2.76537 241.616 1.78516 240.406 1.78516Z" fill="#0054FF"/>
<path d="M345.851 69.3945H277.311C276.145 69.3945 275.199 70.3402 275.199 71.5066V78.5899C275.199 79.7563 276.145 80.702 277.311 80.702H345.851C347.018 80.702 347.963 79.7563 347.963 78.5899V71.5066C347.963 70.3402 347.018 69.3945 345.851 69.3945Z" fill="#0054FF"/>
<path d="M260.645 45.5982V3.9745C260.645 2.76534 259.664 1.78516 258.455 1.78516L251.526 1.78516C250.317 1.78516 249.337 2.76534 249.337 3.9745V45.5982C249.337 46.8073 250.317 47.7876 251.526 47.7876H258.455C259.664 47.7876 260.645 46.8073 260.645 45.5982Z" fill="#0054FF"/>
<path d="M211.879 15.9252C211.026 15.9233 210.332 16.6078 210.31 17.4602C210.158 23.4575 209.601 27.5303 205.036 30.5262C203.49 31.5565 199.652 33.2565 192.543 33.5656C191.384 33.6171 190.457 34.5959 190.457 35.7807V41.9367C190.457 43.1988 191.513 44.2291 192.801 44.1518C195.042 44.023 198.725 43.6367 203.027 42.5806C203.078 42.5806 203.13 42.5549 203.181 42.5291C203.67 42.3746 206.272 41.5503 208.255 40.7518C213.381 38.6655 217.245 35.2398 219.357 30.552C221.288 26.2656 221.41 23.0774 221.594 17.5613C221.624 16.6797 220.918 15.946 220.036 15.9439L211.879 15.9252Z" fill="#0054FF"/>
<path d="M317.262 70.7604V51.3136C317.262 50.1329 316.305 49.1758 315.124 49.1758H308.092C306.911 49.1758 305.954 50.1329 305.954 51.3136V70.7604C305.954 71.9411 306.911 72.8982 308.092 72.8982H315.124C316.305 72.8982 317.262 71.9411 317.262 70.7604Z" fill="#0054FF"/>
<path d="M255.57 30.4297H265.744C266.953 30.4297 267.934 29.4495 267.934 28.2403V21.3116C267.934 20.1025 266.953 19.1223 265.744 19.1223H255.57C254.361 19.1223 253.381 20.1025 253.381 21.3116V28.2403C253.381 29.4495 254.361 30.4297 255.57 30.4297Z" fill="#0054FF"/>
<path d="M227.64 32.1672C226.965 31.8168 226.251 31.4404 225.551 31.018C224.578 30.4313 223.208 30.861 222.752 31.9015C222.641 32.155 222.52 32.4183 222.385 32.7081C221.793 33.9186 221.072 35.0004 220.273 36.005C219.475 37.0095 219.681 38.4519 220.711 39.1731C222.153 40.1777 222.952 40.461 224.523 41.1822C227.331 42.4443 228.928 42.9594 234.156 43.8867C236.449 44.2988 238.921 44.4018 240.621 44.4018C241.832 44.4018 242.837 43.4231 242.837 42.2125V37.2156C242.837 36.005 241.858 35.0262 240.647 35.0262C238.741 35.0262 237.093 34.9747 235.521 34.6914C231.967 34.0474 229.597 33.1459 227.64 32.1672Z" fill="#0054FF"/>
<path d="M308.037 1.78516C306.852 1.78516 305.899 2.73817 305.899 3.92301V10.182C305.899 12.1396 305.822 15.7971 305.616 17.7546C305.023 23.2409 303.272 29.8348 299.872 33.415C296.472 36.9953 290.908 40.7816 283.053 40.4468H281.224C280.039 40.4468 279.086 41.3998 279.086 42.5846V49.3073C279.086 50.4921 280.039 51.4451 281.224 51.4451H282.898C282.898 51.4451 283.001 51.4451 283.053 51.4451C290.059 50.9557 291.372 50.5951 297.657 48.5345C298.713 48.1997 299.743 47.7361 300.696 47.1952C303.014 45.8558 303.71 45.4437 305.899 43.4861C310.02 39.8286 312.21 36.5317 314.348 31.8438C316.485 27.156 317.232 18.7592 317.232 10.9805V3.92301C317.232 2.73817 316.279 1.78516 315.095 1.78516H308.037Z" fill="#0054FF"/>
<path d="M340.19 40.6802C332.953 40.6802 326.925 37.4348 323.062 34.9363C322.179 34.365 321.424 33.8519 320.336 32.9121C319.451 32.1482 318.037 32.5066 317.608 33.5939C317.384 34.1627 317.133 34.7539 316.854 35.3742C316.159 36.9196 315.386 38.2333 314.562 39.4696C313.97 40.3454 314.098 41.4787 314.82 42.2256C315.721 43.1271 316.674 44.0029 317.859 44.9044C319.301 46.0119 321.954 47.4028 322.83 47.815C325.406 48.9998 327.801 49.9013 329.115 50.2619C333.828 51.5498 337.331 51.6785 339.598 51.6785H343.024C344.234 51.6785 345.213 50.6998 345.213 49.4892V42.8438C345.213 41.6332 344.234 40.6544 343.024 40.6544H340.19V40.6802Z" fill="#0054FF"/>
<path d="M15.4301 80.3013C12.6029 80.1704 9.95884 79.1756 7.81222 77.3431C3.99019 74.0708 2.41949 68.7043 3.70222 63.3115C4.93261 58.1282 9.67088 49.1229 19.2521 39.4107C23.2051 35.4055 27.603 31.1384 32.9696 27.0546C33.5455 26.6357 33.8335 25.9027 33.7026 25.2221C32.8911 20.6409 31.713 17.1592 30.7968 15.6408C29.357 13.2062 27.446 11.6879 25.2993 11.2167C23.2836 10.7717 21.0323 11.2952 19.0165 12.6827C14.7495 15.6146 11.163 20.3791 9.51381 22.7875C8.93789 23.6252 7.8384 23.8346 6.97451 23.3111L1.24146 19.8294C0.299043 19.2534 0.0372596 18.0492 0.639361 17.133C2.62891 14.1748 7.2363 7.99676 13.0741 3.99147C17.4982 0.954787 22.6292 -0.144702 27.5245 0.928609C32.4984 2.0281 36.8702 5.32657 39.7759 10.2219C40.7445 11.8711 41.8179 14.5152 42.7603 17.8922C43.0744 19.0702 44.3833 19.6199 45.4828 19.0702C47.6818 17.9183 50.0117 16.845 52.4724 15.8241C61.9752 11.8973 66.8245 10.1696 70.8036 9.01771C71.8246 8.70357 72.8717 9.30567 73.1597 10.3266L74.9398 16.7403C75.2278 17.7351 74.6518 18.7822 73.6571 19.0702C69.835 20.1959 65.3783 21.8189 56.4515 25.4839C52.551 27.1069 49.0693 28.8871 45.9017 30.7981C45.2996 31.1646 44.9854 31.819 45.0116 32.4997C45.4305 41.217 44.2524 51.1124 39.8021 60.0131C34.9591 69.6991 28.9381 76.1127 21.8962 79.0447C19.7234 79.961 17.4982 80.3536 15.3778 80.2489L15.4301 80.3013ZM33.9382 44.4893C34.2523 42.6569 32.0533 41.4788 30.7182 42.7616C29.3832 44.0443 28.0219 45.4056 26.713 46.7407C18.0479 55.5366 14.54 62.9974 13.8856 65.72C13.5191 67.2645 13.7809 68.6519 14.6186 69.3587C15.6134 70.1964 17.1317 69.7514 17.9694 69.4111C22.603 67.4739 26.8439 62.7618 30.5088 55.3795C32.2366 51.924 33.3099 48.2067 33.9382 44.4893Z" fill="#0054FF"/>
<path d="M72.2396 73.4943C71.2394 73.7345 70.2568 73.1634 69.9636 72.1883C68.4301 66.8135 64.8098 57.4398 59.4192 51.2223C56.0983 47.38 53.6004 45.7806 51.7722 44.3533C50.9739 43.7339 50.815 42.6045 51.3827 41.7789L55.1673 36.2834C55.789 35.3803 57.0242 35.1714 57.8999 35.8449C60.0628 37.5413 63.2559 39.6794 67.3183 44.3494C74.8297 52.9955 78.7633 64.8373 80.1016 69.5533C80.393 70.6069 79.7679 71.667 78.7153 71.9061L72.2402 73.4681L72.2396 73.4943Z" fill="#0054FF"/>
</svg>
