<svg width="283" height="46" viewBox="0 0 283 46" fill="none" xmlns="http://www.w3.org/2000/svg">
<rect width="283" height="46" rx="20" fill="#D2D2D7"/>
<path d="M46.7969 27.7344V29.8242H30.5273V27.7344H37.3633V24.5312H31.875V22.5781H34.2578V17.5H31.7969V15.5078H45.4297V17.5H42.9297V22.5781H45.3516V24.5312H39.8438V27.7344H46.7969ZM36.7578 22.5781H40.4688V17.5H36.7578V22.5781ZM62.3047 23.2031V25.1758H49.7266V15.332H62.168V17.3438H52.2656V19.2188H61.7578V21.1719H52.2656V23.2031H62.3047ZM64.082 27.6953V29.7266H47.8125V27.6953H64.082ZM79.8633 14.4531V16.2891H77.5391V18.6328H79.7461V20.4883H74.4336V21.6016H81.3086V23.5352H65.0977V21.6016H71.9336V20.4883H66.6406V18.6328H68.8281V16.2891H66.5234V14.4531H79.8633ZM79.3359 24.4727V28.8281H69.4336V29.8438H79.8047V31.6797H66.9922V27.1484H76.875V26.25H66.9727V24.4727H79.3359ZM71.3281 18.6328H75.0391V16.2891H71.3281V18.6328ZM97.2852 14.0234V31.8359H94.8047V14.0234H97.2852ZM91.7773 15.5078V22.3633H85.918V25.625C88.623 25.6152 90.9277 25.459 93.5352 25.0391L93.75 27.0508C90.8203 27.5586 88.1836 27.6758 84.9414 27.6758H83.3398V20.3906H89.2383V17.5195H83.3203V15.5078H91.7773ZM107.773 14.9414C111.602 14.9414 114.453 16.875 114.473 19.8047C114.453 22.4805 112.197 24.2871 109.004 24.6484V27.6758H115.938V29.7266H99.668V27.6758H106.523V24.6289C103.34 24.2871 101.094 22.4707 101.094 19.8047C101.094 16.875 103.945 14.9414 107.773 14.9414ZM107.773 16.9336C105.293 16.9336 103.555 18.0273 103.555 19.8047C103.555 21.6797 105.293 22.7344 107.773 22.7344C110.273 22.7344 111.992 21.6797 112.012 19.8047C111.992 18.0273 110.273 16.9336 107.773 16.9336ZM130.625 15.4883V24.0234H122.09V15.4883H130.625ZM124.551 17.4805V22.0703H128.164V17.4805H124.551ZM135.664 14.0234V19.1406H138.066V21.1914H135.664V26.9922H133.164V14.0234H135.664ZM136.309 29.4922V31.4844H124.141V25.7227H126.621V29.4922H136.309ZM155.098 20.957V22.9102H138.848V20.957H155.098ZM153.164 18.0273V19.9805H140.879V14.375H153.027V16.3672H143.359V18.0273H153.164ZM153.086 23.9648V28.6133H143.184V29.707H153.555V31.6406H140.742V26.8359H150.625V25.8398H140.723V23.9648H153.086ZM171.113 14.0234V31.8359H168.633V22.4609H165.762V20.4297H168.633V14.0234H171.113ZM164.766 15.5078V22.168H159.238V25.6445C161.689 25.625 163.77 25.5371 166.055 25.1367L166.25 27.168C163.613 27.5977 161.191 27.6953 158.223 27.6953H156.758V20.1953H162.344V17.5195H156.719V15.5078H164.766ZM192.051 14.0234V20.8398H194.57V22.8906H192.051V31.7578H189.551V14.0234H192.051ZM187.305 15.8398C187.285 21.1523 185.215 25.7617 179.238 28.6914L177.832 26.7773C182.041 24.668 184.297 21.8359 184.766 17.8711H178.848V15.8398H187.305ZM210.254 14.0234V31.7969H207.734V14.0234H210.254ZM204.922 15.8789C204.922 21.2695 203.027 25.7422 196.68 28.75L195.371 26.7578C199.961 24.5898 201.982 21.7773 202.383 17.832H196.328V15.8789H204.922Z" fill="#383838"/>
<path d="M239.105 17.7891H234.244C233.005 17.7891 232 18.7936 232 20.0328V29.7558C232 30.995 233.005 31.9996 234.244 31.9996H243.967C245.206 31.9996 246.211 30.995 246.211 29.7558V24.8943" stroke="#383838" stroke-width="2" stroke-linecap="round" stroke-linejoin="round"/>
<path d="M238.422 24.164C238.031 24.5545 238.031 25.1876 238.422 25.5782C238.812 25.9687 239.445 25.9687 239.836 25.5782L238.422 24.164ZM251 14.0014C251 13.4491 250.552 13.0014 250 13.0013L241 13.001C240.447 13.0009 240 13.4486 240 14.0009C240 14.5532 240.447 15.0009 241 15.001L249 15.0013L248.999 23.0013C248.999 23.5536 249.447 24.0013 249.999 24.0013C250.551 24.0014 250.999 23.5537 250.999 23.0014L251 14.0014ZM239.836 25.5782L250.707 14.7085L249.293 13.2942L238.422 24.164L239.836 25.5782Z" fill="#383838"/>
</svg>
