<svg width="400" height="60" viewBox="0 0 400 60" fill="none" xmlns="http://www.w3.org/2000/svg">
<rect width="400" height="60" rx="3.9801" fill="#03C75A"/>
<g clip-path="url(#clip0_7259_19048)">
<path d="M92.3733 30.5567L86.4705 22.0366H81.5781V37.957H86.7034V29.4356L92.6061 37.957H97.4985V22.0366H92.3733V30.5567Z" fill="white"/>
</g>
<path d="M121.692 27.418H118.29V26.104H121.692V21.37H123.222V35.986H121.692V27.418ZM126.39 36.76H124.86V21.028H126.39V36.76ZM120.612 32.242C119.496 32.512 117.354 32.728 115.392 32.764H113.898V22.72H115.482V31.396C117.03 31.396 119.298 31.234 120.378 30.928L120.612 32.242ZM141.658 36.76H140.056V21.028H141.658V36.76ZM129.238 27.76C129.238 24.646 130.498 22.216 133.288 22.216C136.078 22.216 137.32 24.646 137.32 27.778C137.32 30.892 136.078 33.34 133.288 33.34C130.498 33.34 129.238 30.892 129.238 27.76ZM135.736 27.778C135.736 25.348 134.908 23.584 133.288 23.584C131.686 23.584 130.858 25.348 130.858 27.778C130.858 30.208 131.686 31.954 133.288 31.954C134.908 31.954 135.736 30.208 135.736 27.778ZM155.666 28.138H152.84V26.788H155.666V21.028H157.25V36.76H155.666V28.138ZM152.138 32.8H144.74V22.306H146.306V26.266H150.536V22.288H152.138V32.8ZM150.536 31.504V27.526H146.306V31.504H150.536ZM174.031 34.762H159.829V33.466H166.093V30.982H161.539V25.924H170.683V23.62H161.503V22.324H172.267V27.22H163.123V29.686H172.699V30.982H167.695V33.466H174.031V34.762ZM183.659 34.924C182.237 34.924 181.013 34.528 180.329 34.06L180.653 32.836C181.319 33.286 182.543 33.628 183.443 33.628C185.369 33.628 186.449 32.782 186.449 31.288C186.449 29.794 185.315 29.092 183.533 29.092H182.363V27.778H183.425C184.955 27.76 185.999 27.004 185.999 25.708C185.999 24.268 185.063 23.764 183.623 23.764C182.651 23.764 181.715 24.178 180.977 24.592L180.743 23.332C181.481 22.864 182.885 22.432 183.965 22.432C186.161 22.432 187.637 23.53 187.637 25.456C187.637 26.914 186.719 27.814 185.351 28.282C186.917 28.57 188.069 29.452 188.069 31.324C188.069 33.466 186.359 34.924 183.659 34.924ZM203.372 29.722L202.706 31.054C200.204 30.604 197.666 29.056 196.874 27.436C196.136 29.128 193.67 30.604 191.06 31.036L190.358 29.74C192.878 29.47 195.722 27.85 196.046 25.888H191.15V24.61H202.598V25.888H197.72C198.062 27.85 201.068 29.524 203.372 29.722ZM203.984 34.762H189.782V33.466H196.046V30.046H197.648V33.466H203.984V34.762ZM199.466 22.972H194.282V21.676H199.466V22.972ZM213.348 29.704H205.914V22.378H213.348V29.704ZM211.764 28.444V23.656H207.48V28.444H211.764ZM219.864 27.058H217.506V32.458H215.904V21.028H217.506V25.744H219.864V27.058ZM218.046 36.256H207.552V31.342H209.136V34.96H218.046V36.256ZM224.674 22.27C226.87 22.27 228.004 24.34 228.13 27.166H229.66V21.334H231.172V36.022H229.66V28.48H228.13C227.986 31.27 226.852 33.304 224.674 33.304C222.334 33.304 221.218 30.91 221.218 27.76C221.218 24.628 222.334 22.27 224.674 22.27ZM226.582 27.778C226.582 25.33 225.952 23.62 224.674 23.62C223.432 23.62 222.784 25.33 222.784 27.778C222.784 30.244 223.432 31.936 224.674 31.936C225.952 31.936 226.582 30.244 226.582 27.778ZM234.214 36.76H232.702V21.028H234.214V36.76ZM255.435 34.762H241.233V33.466H247.497V30.982H242.943V25.924H252.087V23.62H242.907V22.324H253.671V27.22H244.527V29.686H254.103V30.982H249.099V33.466H255.435V34.762ZM271.009 34.474H256.807V33.178H271.009V34.474ZM269.119 22.81C269.119 26.392 268.849 30.01 268.381 32.044L266.833 31.846C267.229 30.334 267.499 26.464 267.499 24.088H258.283V22.81H269.119ZM285.287 32.458H283.685V21.028H285.287V32.458ZM285.647 36.274H274.937V31.378H276.539V34.996H285.647V36.274ZM276.935 22.09C279.365 22.09 281.147 23.764 281.147 26.014C281.147 28.282 279.365 29.848 276.935 29.848C274.523 29.848 272.741 28.282 272.741 26.032C272.741 23.764 274.523 22.09 276.935 22.09ZM276.935 23.458C275.459 23.458 274.415 24.538 274.415 25.996C274.415 27.436 275.459 28.516 276.935 28.516C278.483 28.516 279.455 27.454 279.455 26.014C279.455 24.52 278.483 23.458 276.935 23.458ZM302.607 28.912H300.105V36.76H298.503V21.028H300.105V27.58H302.607V28.912ZM294.903 23.35H290.205V22.054H294.903V23.35ZM297.189 26.05H287.865V24.772H297.189V26.05ZM296.307 30.262C296.307 32.116 294.831 33.556 292.599 33.556C290.367 33.556 288.873 32.152 288.873 30.262C288.873 28.408 290.367 26.932 292.599 26.932C294.831 26.932 296.307 28.372 296.307 30.262ZM294.741 30.262C294.741 29.092 293.823 28.264 292.599 28.264C291.375 28.264 290.475 29.092 290.475 30.262C290.475 31.414 291.357 32.224 292.599 32.224C293.895 32.224 294.741 31.414 294.741 30.262ZM316.436 36.76H314.834V21.028H316.436V36.76ZM311.828 22.702C311.738 27.706 308.822 31.378 304.52 33.718L303.548 32.512C307.256 30.73 309.812 27.436 310.1 24.052H304.25V22.702H311.828Z" fill="white"/>
<defs>
<clipPath id="clip0_7259_19048">
<rect width="15.9204" height="15.9204" fill="white" transform="translate(81.5781 22.0391)"/>
</clipPath>
</defs>
</svg>
