<svg width="24" height="25" viewBox="0 0 24 25" fill="none" xmlns="http://www.w3.org/2000/svg">
<path d="M10.1053 7.28906H5.24377C4.00457 7.28906 3 8.29363 3 9.53283V19.2558C3 20.495 4.00457 21.4996 5.24377 21.4996H14.9668C16.206 21.4996 17.2105 20.495 17.2105 19.2558V14.3943" stroke="white" stroke-width="2" stroke-linecap="round" stroke-linejoin="round"/>
<path d="M9.42183 13.662C9.03129 14.0525 9.03126 14.6857 9.42177 15.0762C9.81228 15.4668 10.4454 15.4668 10.836 15.0763L9.42183 13.662ZM21.9996 3.49943C21.9996 2.94714 21.5519 2.49941 20.9996 2.49938L11.9996 2.499C11.4473 2.49898 10.9996 2.94667 10.9996 3.49896C10.9996 4.05124 11.4473 4.49898 11.9995 4.499L19.9995 4.49934L19.9992 12.4993C19.9992 13.0516 20.4469 13.4994 20.9992 13.4994C21.5514 13.4994 21.9992 13.0517 21.9992 12.4994L21.9996 3.49943ZM10.836 15.0763L21.7067 4.20652L20.2925 2.79225L9.42183 13.662L10.836 15.0763Z" fill="white"/>
</svg>
