<svg width="108" height="63" viewBox="0 0 108 63" fill="none" xmlns="http://www.w3.org/2000/svg">
<path d="M38 20.4088V27.785C38 28.9029 38.4214 29.975 39.1716 30.7655C39.9217 31.5559 40.9391 32 42 32H66C67.0609 32 68.0783 31.5559 68.8284 30.7655C69.5786 29.975 70 28.9029 70 27.785V20.4088M54.0015 21.5V2.5M54.0015 2.5L44.8586 10.1264M54.0015 2.5L63.1443 10.1264" stroke="#AFB0B4" stroke-width="4" stroke-linecap="round" stroke-linejoin="round"/>
<path d="M0.953125 58.5V47.1875H5.39062C7.96875 47.1875 9.4375 48.7656 9.4375 51C9.4375 53.2656 7.9375 54.8125 5.32812 54.8125H3.29688V58.5H0.953125ZM3.29688 52.9219H4.95312C6.34375 52.9219 7.01562 52.1406 7.01562 51C7.01562 49.875 6.34375 49.1094 4.95312 49.1094H3.29688V52.9219ZM14.9062 58.5H10.9219V47.1875H14.9531C18.3594 47.1875 20.4375 49.3125 20.4375 52.8281C20.4375 56.375 18.3594 58.5 14.9062 58.5ZM13.2656 56.4844H14.8125C16.9688 56.4844 18.0938 55.3594 18.0938 52.8281C18.0938 50.3125 16.9688 49.2031 14.8281 49.2031H13.2656V56.4844ZM22.1406 58.5V47.1875H29.5938V49.125H24.4844V51.875H29.1094V53.8125H24.4844V58.5H22.1406ZM40 53.4062V55.5469C41.1641 55.4766 42.3438 55.3672 43.4531 55.2031L43.6094 56.6562C40.4531 57.2656 37.0781 57.2969 34.5938 57.2969L34.3594 55.6875C35.4297 55.6797 36.6875 55.6719 38.0156 55.625V53.4062H40ZM42.9375 47.3906V49H40.0312C40.1641 50.375 41.2344 51.6641 43.375 52.1875L42.4688 53.7344C40.8047 53.3125 39.6562 52.3906 39.0156 51.2031C38.3828 52.4453 37.25 53.4141 35.5781 53.8438L34.6406 52.3438C36.7891 51.7734 37.8281 50.4375 37.9688 49H35.0938V47.3906H38.0156V45.8438H40V47.3906H42.9375ZM46.25 45.7188V59.9688H44.2656V45.7188H46.25ZM60.4219 45.7188V59.9375H58.5312V52.7969H57.1562V59.25H55.3281V45.9531H57.1562V51.2031H58.5312V45.7188H60.4219ZM53.8281 47.3594V48.9688H50.5312V55.0312C51.9062 55.0234 53.125 54.9531 54.5 54.7031L54.6406 56.3281C52.9062 56.6562 51.3906 56.7031 49.5156 56.7188H48.5312V47.3594H53.8281ZM70.9844 47.1875V58.5H68.625V49.4219H68.5625L65.9688 51.0469V48.9688L68.7656 47.1875H70.9844ZM78 58.6562C75.1719 58.6562 73.4531 56.5469 73.4531 52.8438C73.4531 49.1406 75.1719 47.0312 78 47.0312C80.8281 47.0312 82.5469 49.1562 82.5469 52.8438C82.5469 56.5625 80.8281 58.6562 78 58.6562ZM78 56.7188C79.3125 56.7188 80.1562 55.4531 80.1406 52.8438C80.1406 50.2656 79.3125 48.9531 78 48.9531C76.6875 48.9531 75.8594 50.2656 75.8594 52.8438C75.8438 55.4531 76.6875 56.7188 78 56.7188ZM84.2344 47.1875H87.1406L90.2812 54.8594H90.4062L93.5469 47.1875H96.4531V58.5H94.1719V51.0938H94.0781L91.125 58.4531H89.5625L86.6094 51.0625H86.5156V58.5H84.2344V47.1875ZM98.3594 58.5V47.1875H102.859C105.359 47.1875 106.609 48.3906 106.609 50.0938C106.609 51.4219 105.75 52.25 104.578 52.5156V52.625C105.859 52.6875 107.062 53.7031 107.062 55.375C107.062 57.1719 105.719 58.5 103.156 58.5H98.3594ZM102.688 56.5625C104.047 56.5625 104.625 56 104.625 55.1562C104.625 54.2031 103.906 53.5312 102.75 53.5312H100.703V56.5625H102.688ZM102.516 51.9219C103.5 51.9219 104.234 51.375 104.234 50.4688C104.234 49.6562 103.641 49.0938 102.562 49.0938H100.703V51.9219H102.516Z" fill="#AFB0B4"/>
</svg>
