<svg width="432" height="81" viewBox="0 0 432 81" fill="none" xmlns="http://www.w3.org/2000/svg">
<mask id="path-1-inside-1_6008_10226" fill="white">
<path fill-rule="evenodd" clip-rule="evenodd" d="M352.503 13.3681C351.864 14.987 350.386 16.2009 348.646 16.2009H32.1495C14.3938 16.2009 0 30.5948 0 48.3505C0 66.1062 14.3938 80.5 32.1495 80.5H399.85C417.606 80.5 432 66.1062 432 48.3505C432 30.5948 417.606 16.2009 399.85 16.2009H393.83C392.089 16.2009 390.611 14.987 389.973 13.3681C386.998 5.82684 379.731 0.5 371.238 0.5C362.745 0.5 355.477 5.82684 352.503 13.3681Z"/>
</mask>
<path fill-rule="evenodd" clip-rule="evenodd" d="M352.503 13.3681C351.864 14.987 350.386 16.2009 348.646 16.2009H32.1495C14.3938 16.2009 0 30.5948 0 48.3505C0 66.1062 14.3938 80.5 32.1495 80.5H399.85C417.606 80.5 432 66.1062 432 48.3505C432 30.5948 417.606 16.2009 399.85 16.2009H393.83C392.089 16.2009 390.611 14.987 389.973 13.3681C386.998 5.82684 379.731 0.5 371.238 0.5C362.745 0.5 355.477 5.82684 352.503 13.3681Z" fill="white" fill-opacity="0.49"/>
<path d="M389.973 13.3681L388.577 13.9184L389.973 13.3681ZM352.503 13.3681L351.107 12.8177L352.503 13.3681ZM348.646 17.7009H32.1495V14.7009H348.646V17.7009ZM32.1495 17.7009C15.2223 17.7009 1.5 31.4232 1.5 48.3505H-1.5C-1.5 29.7663 13.5654 14.7009 32.1495 14.7009V17.7009ZM1.5 48.3505C1.5 65.2777 15.2223 79 32.1495 79V82C13.5654 82 -1.5 66.9346 -1.5 48.3505H1.5ZM32.1495 79H399.85V82H32.1495V79ZM399.85 79C416.778 79 430.5 65.2777 430.5 48.3505H433.5C433.5 66.9346 418.435 82 399.85 82V79ZM430.5 48.3505C430.5 31.4232 416.778 17.7009 399.85 17.7009V14.7009C418.435 14.7009 433.5 29.7663 433.5 48.3505H430.5ZM399.85 17.7009H393.83V14.7009H399.85V17.7009ZM388.577 13.9184C385.817 6.9207 379.084 2 371.238 2V-1C380.378 -1 388.179 4.73297 391.368 12.8177L388.577 13.9184ZM371.238 2C363.392 2 356.658 6.9207 353.898 13.9184L351.107 12.8177C354.296 4.73297 362.097 -1 371.238 -1V2ZM393.83 17.7009C391.354 17.7009 389.395 15.9904 388.577 13.9184L391.368 12.8177C391.828 13.9836 392.825 14.7009 393.83 14.7009V17.7009ZM348.646 14.7009C349.651 14.7009 350.648 13.9836 351.107 12.8177L353.898 13.9184C353.081 15.9904 351.122 17.7009 348.646 17.7009V14.7009Z" fill="white" mask="url(#path-1-inside-1_6008_10226)"/>
</svg>
