<svg width="52" height="52" viewBox="0 0 52 52" fill="none" xmlns="http://www.w3.org/2000/svg">
<circle cx="26" cy="26" r="26" fill="#EDEDED"/>
<path d="M15.6295 20.5384C15.4413 18.6269 16.9431 16.9701 18.8638 16.9701H32.0522C33.9729 16.9701 35.4747 18.6269 35.2865 20.5384L33.8647 34.9829C33.7009 36.6465 32.3019 37.9145 30.6303 37.9145H20.2857C18.6141 37.9145 17.2151 36.6465 17.0514 34.9829L15.6295 20.5384Z" stroke="#FF7E7E" stroke-width="2.16667" stroke-linejoin="round"/>
<path d="M29.2503 16.6111L29.2503 15.1667C29.2503 13.9701 28.2803 13 27.0837 13L23.8337 13C22.637 13 21.667 13.97 21.667 15.1667L21.667 16.6111" stroke="#FF7E7E" stroke-width="2.16667" stroke-linecap="round"/>
<path d="M22.4248 23.1133V33.2244" stroke="#FF7E7E" stroke-width="2.16667" stroke-linecap="round"/>
<path d="M28.4932 23.1133V33.2244" stroke="#FF7E7E" stroke-width="2.16667" stroke-linecap="round"/>
</svg>
