<svg width="21" height="16" viewBox="0 0 21 16" fill="none" xmlns="http://www.w3.org/2000/svg">
<path d="M1.875 7.25C1.32272 7.25 0.875 7.69772 0.875 8.25C0.875 8.80228 1.32272 9.25 1.875 9.25L1.875 7.25ZM19.8321 8.95711C20.2226 8.56658 20.2226 7.93342 19.8321 7.54289L13.4681 1.17893C13.0776 0.788409 12.4445 0.788409 12.0539 1.17893C11.6634 1.56946 11.6634 2.20262 12.0539 2.59315L17.7108 8.25L12.0539 13.9069C11.6634 14.2974 11.6634 14.9305 12.0539 15.3211C12.4445 15.7116 13.0776 15.7116 13.4681 15.3211L19.8321 8.95711ZM1.875 9.25L19.125 9.25L19.125 7.25L1.875 7.25L1.875 9.25Z" fill="white"/>
</svg>
